<svg width="301" height="109" viewBox="0 0 301 109" fill="none" xmlns="http://www.w3.org/2000/svg">
<g clip-path="url(#clip0_176_150)">
<path d="M244.404 85.8015C244.288 85.7135 244.172 85.6254 244.055 85.5373C236.763 80.0654 235.285 69.7157 240.76 62.4229L254.669 43.8842C260.141 36.5913 270.491 35.1133 277.784 40.5884C277.9 40.6765 278.016 40.7645 278.133 40.8526C285.426 46.3246 286.904 56.671 281.432 63.967C277.026 69.8384 271.915 76.6501 267.519 82.5089C262.047 89.8017 251.7 91.2766 244.408 85.8015H244.404Z" fill="#ADADAD"/>
<path d="M244.729 85.3015C240.251 81.9428 237.65 76.691 238.097 71.0523C238.383 67.4389 239.984 64.4388 242.11 61.6084C246.028 56.3849 249.946 51.1645 253.865 45.9409C255.78 43.3905 257.761 41.0664 260.686 39.5884C265.611 37.104 271.646 37.3587 276.319 40.3054C281.061 43.2961 284.14 48.3782 284.14 54.042C284.14 60.4323 279.964 64.9262 276.344 69.7535C273.926 72.9738 271.51 76.1941 269.092 79.4175C267.089 82.0875 265.215 84.7008 262.262 86.3928C256.708 89.5753 249.862 89.047 244.729 85.3047C244.11 84.8549 243.459 85.8487 244.078 86.3016C248.638 89.6256 254.528 90.61 259.887 88.7671C266.196 86.5972 269.517 80.8327 273.325 75.7601C275.677 72.6279 278.027 69.4956 280.379 66.3602C282.215 63.9104 283.923 61.5518 284.734 58.5548C286.156 53.2872 284.951 47.5133 281.505 43.2741C274.401 34.5347 260.975 34.695 254.138 43.6075C250.016 48.982 246.006 54.4445 241.943 59.863C239.587 63.0016 237.534 66.0961 237.002 70.1215C236.163 76.4677 239.031 82.5152 244.081 86.3047C244.695 86.7638 245.342 85.7669 244.732 85.3078L244.729 85.3015Z" fill="#2E2D2B"/>
<mask id="mask0_176_150" style="mask-type:luminance" maskUnits="userSpaceOnUse" x="237" y="37" width="48" height="53">
<path d="M244.404 85.8015C244.288 85.7134 244.172 85.6254 244.055 85.5373C236.763 80.0653 235.285 69.7157 240.76 62.4229L254.669 43.8842C260.141 36.5913 270.491 35.1132 277.784 40.5884C277.9 40.6764 278.016 40.7645 278.133 40.8525C285.426 46.3245 286.904 56.671 281.432 63.967C277.026 69.8384 271.915 76.6501 267.519 82.5089C262.047 89.8017 251.7 91.2766 244.408 85.8015H244.404Z" fill="white"/>
</mask>
<g mask="url(#mask0_176_150)">
<path d="M225.667 87.4335C247.555 84.3107 269.44 81.191 291.328 78.0682C292.089 77.9613 291.853 76.7914 291.098 76.9015C269.21 80.0243 247.325 83.144 225.438 86.2668C224.676 86.3737 224.912 87.5436 225.667 87.4335Z" fill="#2E2D2B"/>
<path d="M222.425 80.93C244.313 77.8072 266.198 74.6875 288.086 71.5647C288.847 71.4578 288.611 70.2879 287.856 70.398C265.968 73.5208 244.083 76.6405 222.195 79.7633C221.434 79.8702 221.67 81.0401 222.425 80.93Z" fill="#2E2D2B"/>
<path d="M219.183 74.4265C241.071 71.3037 262.956 68.1841 284.843 65.0613C285.605 64.9543 285.369 63.7845 284.614 63.8945C262.726 67.0173 240.841 70.137 218.953 73.2598C218.192 73.3667 218.428 74.5366 219.183 74.4265Z" fill="#2E2D2B"/>
<path d="M215.941 67.923C237.829 64.8002 259.713 61.6806 281.601 58.5578C282.362 58.4508 282.126 57.281 281.372 57.391C259.484 60.5138 237.599 63.6335 215.711 66.7563C214.95 66.8632 215.186 68.0331 215.941 67.923Z" fill="#2E2D2B"/>
<path d="M212.698 61.4196C234.586 58.2968 256.471 55.1771 278.359 52.0543C279.12 51.9474 278.884 50.7775 278.13 50.8875C256.242 54.0104 234.357 57.13 212.469 60.2528C211.708 60.3597 211.944 61.5296 212.698 61.4196Z" fill="#2E2D2B"/>
<path d="M237.658 42.3934C240.78 64.2813 243.9 86.1661 247.023 108.054C247.13 108.815 248.3 108.579 248.19 107.825C245.067 85.9366 241.947 64.0517 238.824 42.1638C238.717 41.4027 237.548 41.6386 237.658 42.3934Z" fill="#2E2D2B"/>
<path d="M244.162 39.1511C247.284 61.039 250.404 82.9239 253.527 104.812C253.634 105.573 254.804 105.337 254.694 104.582C251.571 82.6943 248.451 60.8095 245.328 38.9215C245.221 38.1605 244.052 38.3963 244.162 39.1511Z" fill="#2E2D2B"/>
<path d="M250.666 35.9087C253.788 57.7967 256.908 79.6815 260.031 101.569C260.138 102.331 261.308 102.095 261.198 101.34C258.075 79.4519 254.955 57.5671 251.832 35.6792C251.725 34.9181 250.555 35.154 250.666 35.9087Z" fill="#2E2D2B"/>
<path d="M257.167 32.6664C260.29 54.5544 263.41 76.4392 266.533 98.3272C266.64 99.0882 267.81 98.8523 267.699 98.0976C264.577 76.2096 261.457 54.3248 258.334 32.4369C258.227 31.6758 257.057 31.9117 257.167 32.6664Z" fill="#2E2D2B"/>
<path d="M263.671 29.4241C266.794 51.3121 269.914 73.1969 273.037 95.0849C273.144 95.8459 274.313 95.61 274.203 94.8553C271.081 72.9673 267.961 51.0825 264.838 29.1946C264.731 28.4335 263.561 28.6694 263.671 29.4241Z" fill="#2E2D2B"/>
<path d="M248.436 47.2239C252.98 50.6329 275.063 67.203 279.607 70.6119C279.607 70.6119 295.098 51.6518 278.906 39.5034C262.713 27.3518 248.436 47.2239 248.436 47.2239Z" fill="#757575"/>
<path d="M248.108 47.7207C258.498 55.5168 268.889 63.3128 279.279 71.1088C279.556 71.3163 279.912 71.1717 280.103 70.9358C285.075 64.8254 288.635 55.6174 285.99 47.8591C283.871 41.6481 277.767 36.6447 271.392 35.3239C265.835 34.176 260.351 36.0943 255.816 39.2706C252.857 41.3431 250.061 43.9501 247.938 46.8937C247.488 47.5132 248.485 48.1673 248.935 47.5446C253.335 41.4468 260.92 35.8082 268.719 36.1761C275.201 36.4812 281.729 41.0663 284.374 46.9691C286.538 51.8059 285.77 57.2621 283.852 62.0391C282.682 64.9481 281.097 67.8413 279.11 70.2817L279.934 70.1087C269.543 62.3127 259.153 54.5167 248.762 46.7207C248.149 46.2616 247.501 47.2585 248.111 47.7176L248.108 47.7207Z" fill="#2E2D2B"/>
<path d="M272.216 48.8561C271.316 47.7774 269.524 47.6107 268.439 48.5007C267.348 49.4001 267.175 51.2115 268.083 52.2996C268.989 53.3877 270.801 53.545 271.882 52.633C272.955 51.7273 273.115 49.9316 272.216 48.8561Z" fill="#5B5B5B"/>
<path d="M272.659 48.4567C271.763 47.4157 270.254 47.0855 268.977 47.5321C267.709 47.9724 266.904 49.246 266.904 50.5731C266.904 51.9569 267.713 53.1833 269.04 53.6362C270.345 54.0828 271.829 53.7117 272.7 52.6298C273.656 51.4443 273.6 49.6265 272.656 48.4567C272.455 48.2082 272.046 48.2051 271.817 48.4126C271.568 48.6359 271.568 49.0007 271.772 49.2523C272.285 49.8844 272.354 50.9191 271.923 51.6581C271.467 52.4443 270.587 52.7777 269.675 52.5827C268.832 52.4034 268.238 51.765 268.112 50.9159C267.986 50.0668 268.376 49.1454 269.115 48.7586C269.974 48.312 271.125 48.5007 271.769 49.2492C272.269 49.8278 273.156 49.0353 272.656 48.4535L272.659 48.4567Z" fill="#2E2D2B"/>
</g>
<path d="M244.729 85.3015C240.251 81.9428 237.65 76.691 238.097 71.0523C238.383 67.4389 239.984 64.4387 242.11 61.6084C246.028 56.3848 249.946 51.1644 253.865 45.9409C255.78 43.3904 257.761 41.0664 260.686 39.5884C265.611 37.1039 271.646 37.3587 276.319 40.3054C281.061 43.2961 284.14 48.3781 284.14 54.0419C284.14 60.4322 279.964 64.9262 276.344 69.7535C273.926 72.9738 271.51 76.1941 269.092 79.4175C267.089 82.0875 265.215 84.7008 262.262 86.3927C256.708 89.5753 249.862 89.047 244.729 85.3046C244.11 84.8549 243.459 85.8487 244.078 86.3015C248.638 89.6256 254.528 90.6099 259.887 88.7671C266.196 86.5971 269.517 80.8327 273.325 75.7601C275.677 72.6278 278.027 69.4956 280.379 66.3602C282.215 63.9104 283.923 61.5518 284.734 58.5548C286.156 53.2872 284.951 47.5133 281.505 43.2741C274.401 34.5346 260.975 34.695 254.138 43.6074C250.016 48.9819 246.006 54.4445 241.943 59.863C239.587 63.0015 237.534 66.0961 237.002 70.1214C236.163 76.4677 239.031 82.5152 244.081 86.3047C244.695 86.7638 245.342 85.7669 244.732 85.3078L244.729 85.3015Z" fill="#2E2D2B"/>
<path d="M245.598 47.2994L280.367 73.3889C280.911 73.7977 281.716 73.6813 282.226 73.1153C286.258 68.6213 301.381 49.5889 282.465 35.3963C263.634 21.2666 248.85 40.2865 245.384 45.3717C244.938 46.0289 245.029 46.8749 245.595 47.2994H245.598ZM279.927 38.5097C295.44 50.1486 284.525 64.467 281.113 68.2974C280.603 68.8666 279.798 68.983 279.251 68.5742L250.438 46.9566C249.866 46.5258 249.781 45.6704 250.237 45.0132C253.224 40.7079 264.505 26.943 279.924 38.5128L279.927 38.5097Z" fill="#5B5B5B"/>
<path d="M245.273 47.7963C251.157 52.2117 257.037 56.6238 262.921 61.0392C266.849 63.9859 270.78 66.9357 274.708 69.8824C276.016 70.8636 277.325 71.8448 278.633 72.8291C279.18 73.2411 279.749 73.8072 280.394 74.0682C282.102 74.7663 283.319 72.7945 284.231 71.6592C285.507 70.0711 286.687 68.3981 287.737 66.6527C290.325 62.3537 292.278 57.4572 292.357 52.3815C292.451 46.3151 289.605 40.8903 285.168 36.8618C280.271 32.415 273.919 29.2356 267.17 29.7356C261.305 30.1696 256.006 33.2547 251.732 37.1417C249.943 38.7675 248.304 40.5569 246.801 42.4501C245.688 43.8496 243.518 45.9629 245.15 47.6988C245.672 48.2555 246.562 47.463 246.037 46.9032C245.04 45.8403 247.754 43.1388 248.37 42.3935C249.716 40.7676 251.179 39.2361 252.748 37.8272C256.405 34.5503 260.789 31.8898 265.698 31.1005C272.177 30.0595 278.384 32.7484 283.312 36.8209C288.011 40.7016 291.263 46.0824 291.168 52.3029C291.093 57.1333 289.262 61.7813 286.813 65.8822C285.847 67.4955 284.778 69.0459 283.617 70.524C282.979 71.3385 281.847 73.326 280.595 72.8228C279.976 72.5744 279.328 71.8699 278.8 71.4768L274.957 68.593C271.337 65.8759 267.714 63.1588 264.094 60.4417C258.037 55.8942 251.977 51.35 245.92 46.8026C245.307 46.3434 244.659 47.3403 245.27 47.7995L245.273 47.7963Z" fill="#2E2D2B"/>
<path d="M279.602 39.0066C283.737 42.164 287.124 46.4598 287.42 51.8374C287.628 55.6364 286.341 59.3756 284.47 62.6368C283.719 63.945 281.341 68.6056 279.467 67.9955C278.948 67.8257 278.341 67.1496 277.91 66.8256C276.901 66.0677 275.891 65.3099 274.878 64.5519C269.013 60.1492 263.148 55.7496 257.28 51.3468C255.337 49.8876 253.39 48.4284 251.446 46.9692C250.682 46.3937 250.424 46.0321 251.006 44.9597C251.588 43.8873 252.626 42.8464 253.462 41.9438C256.211 38.9657 259.601 36.3649 263.541 35.2202C269.315 33.544 274.919 35.5567 279.605 39.0129C280.222 39.4657 280.873 38.4719 280.256 38.0159C275.913 34.8145 270.721 32.7232 265.258 33.6132C261.217 34.2705 257.573 36.4372 254.579 39.1607C253.352 40.2771 252.223 41.4973 251.179 42.7866C250.371 43.7835 248.987 45.1484 249.465 46.5478C249.707 47.2617 250.368 47.6454 250.937 48.0731C251.912 48.8027 252.884 49.5354 253.858 50.265C260.337 55.1269 266.818 59.9888 273.297 64.8507C275.121 66.2187 276.904 67.7565 278.819 68.9956C281.218 70.546 283.392 66.5521 284.489 64.8853C286.879 61.253 288.665 56.9887 288.628 52.5796C288.577 46.4818 284.939 41.601 280.256 38.0222C279.649 37.5568 278.998 38.5537 279.605 39.0191L279.602 39.0066Z" fill="#2E2D2B"/>
<path d="M287.166 23.9083C285.163 26.5782 281.153 31.9213 279.146 34.5944L283.345 37.7455C285.348 35.0755 289.358 29.7325 291.364 27.0594C291.364 27.0594 291.751 25.3958 290.144 24.1881C288.741 23.1346 287.166 23.9083 287.166 23.9083Z" fill="#5B5B5B"/>
<path d="M286.669 23.5843C283.996 27.1474 281.323 30.7074 278.65 34.2704C278.449 34.5378 278.578 34.912 278.823 35.0944C280.222 36.1448 281.622 37.1951 283.021 38.2455C283.289 38.4468 283.663 38.3178 283.845 38.0725C286.317 34.7799 288.786 31.4873 291.254 28.1946C291.638 27.6852 291.987 27.3141 292 26.6631C292.015 25.7228 291.638 24.8014 290.978 24.1315C289.921 23.056 288.276 22.7258 286.902 23.3768C286.21 23.707 286.742 24.7699 287.433 24.4429C288.695 23.8422 290.258 24.5529 290.698 25.8706C290.792 26.1505 290.82 26.4461 290.808 26.7417C290.808 26.8172 290.808 26.9116 290.78 26.9839C290.899 26.6631 290.607 27.0845 290.6 27.094C290.122 27.7292 289.647 28.3645 289.169 28.9997C287.062 31.808 284.955 34.6132 282.851 37.4216L283.675 37.2486C282.276 36.1982 280.877 35.1478 279.477 34.0975L279.65 34.9214C282.323 31.3583 284.996 27.7984 287.669 24.2353C288.128 23.6221 287.132 22.9742 286.672 23.5843H286.669Z" fill="#2E2D2B"/>
<path d="M293.317 15.7191C286.735 2.51403 273.568 -23.8993 266.985 -37.1044L262.287 -34.7647C268.869 -21.5596 282.033 4.85064 288.619 18.0557C288.619 18.0557 292.188 24.8706 294.468 23.7353C296.943 22.5025 293.317 15.7129 293.317 15.7129V15.7191Z" fill="#5B5B5B"/>
<path d="M293.849 15.4518C286.795 1.29698 279.738 -12.8547 272.684 -27.0096C270.964 -30.4626 269.24 -33.9156 267.52 -37.3686C267.375 -37.6548 267.011 -37.7806 266.721 -37.6359C265.155 -36.856 263.589 -36.0761 262.023 -35.2962C261.737 -35.1515 261.611 -34.7867 261.756 -34.4974C267.533 -22.9119 273.307 -11.3232 279.084 0.262337C281.829 5.77206 284.578 11.2818 287.323 16.7915C288.065 18.2822 288.829 19.7162 289.785 21.0842C290.669 22.3453 292.094 24.424 293.849 24.4586C298.078 24.5404 294.735 17.1249 293.849 15.4518C293.49 14.7757 292.424 15.304 292.782 15.9833C293.427 17.2003 293.987 18.4992 294.371 19.82C294.82 21.3861 294.911 24.5466 292.606 22.5748C289.896 20.2571 288.436 16.3544 286.889 13.2505C281.546 2.5329 276.206 -8.18151 270.863 -18.8991C268.184 -24.2767 265.501 -29.6544 262.822 -35.032C262.734 -34.7647 262.642 -34.5005 262.554 -34.2332C264.121 -35.0131 265.687 -35.793 267.253 -36.573C266.985 -36.661 266.721 -36.7522 266.454 -36.8403C273.508 -22.6854 280.565 -8.53373 287.619 5.62112C289.339 9.07413 291.062 12.5271 292.782 15.9802C293.125 16.6657 294.188 16.1343 293.849 15.4487V15.4518Z" fill="#2E2D2B"/>
<path d="M298.257 17.0399C295.876 14.1844 291.118 13.7379 288.25 16.1028C285.36 18.4834 284.901 23.2887 287.307 26.1662C289.703 29.05 294.512 29.4651 297.373 27.053C300.216 24.6567 300.638 19.8986 298.257 17.0399Z" fill="#5B5B5B"/>
<path d="M298.697 16.6437C296.625 14.2316 293.093 13.3951 290.109 14.414C287.043 15.4581 285.159 18.4645 285.162 21.6565C285.165 24.8831 287.074 27.726 290.156 28.7796C293.166 29.8079 296.697 29.0249 298.723 26.509C300.971 23.7133 300.943 19.4206 298.701 16.6468C298.219 16.0525 297.336 16.845 297.814 17.4425C299.512 19.5432 299.653 22.6912 298.307 25.0121C296.924 27.399 294.122 28.4211 291.464 27.9053C288.81 27.3895 286.823 25.3769 286.423 22.6975C286.03 20.0715 287.194 17.1752 289.609 15.9141C292.291 14.5146 295.836 15.1405 297.814 17.4393C298.314 18.018 299.201 17.2255 298.701 16.6437H298.697Z" fill="#2E2D2B"/>
<path d="M295.312 19.8515C294.243 18.5684 292.105 18.3671 290.812 19.4301C289.513 20.4993 289.306 22.6629 290.388 23.9555C291.466 25.2511 293.627 25.4398 294.913 24.3549C296.19 23.2762 296.378 21.1377 295.309 19.8546L295.312 19.8515Z" fill="#757575"/>
<path d="M295.755 19.4552C294.724 18.257 292.978 17.8639 291.503 18.3765C290.029 18.8891 289.098 20.3609 289.098 21.905C289.098 23.5026 290.035 24.9177 291.566 25.4398C293.07 25.9524 294.793 25.5341 295.796 24.2856C296.9 22.9113 296.85 20.8074 295.755 19.452C295.274 18.8577 294.39 19.6501 294.868 20.2477C295.535 21.0748 295.589 22.3421 295.06 23.2541C294.497 24.2259 293.362 24.6347 292.28 24.4083C291.227 24.1881 290.472 23.3925 290.312 22.3295C290.151 21.2666 290.617 20.1345 291.569 19.6376C292.651 19.0746 294.073 19.3231 294.868 20.2508C295.368 20.8295 296.255 20.037 295.755 19.4552Z" fill="#2E2D2B"/>
</g>
<path d="M143.344 50.5485C143.096 50.328 142.847 50.1147 142.603 49.8914C140.653 48.1194 138.928 46.1809 137.456 43.9676C136.001 41.781 134.969 39.4651 134.597 36.8982C134.149 33.8061 134.676 30.8818 136.382 28.1605C137.795 25.9072 139.615 24.1014 141.826 22.7208C145.399 20.4921 149.337 19.3162 153.549 19.0162C156.375 18.814 159.195 18.9426 161.921 19.6189C164.069 20.1488 166.124 21.0737 168.202 21.878C169.452 22.3604 170.722 22.8398 171.877 23.5068C173.498 24.4403 175.028 25.5401 176.591 26.5787C180.337 29.0716 183.248 32.3298 185.328 36.3044C186.665 38.8612 187.477 41.6084 187.258 44.507C187.108 46.4971 186.845 48.5456 186.209 50.4216C185.36 52.9327 183.783 55.1028 182.163 57.2251C180.26 59.7184 177.972 61.7196 175.183 63.0838C172.528 64.3828 169.704 65.0783 166.706 65.249C162.249 65.501 157.996 64.5352 153.791 63.3397C151.607 62.7176 149.515 61.7537 147.423 60.8432C145.247 59.8947 143.066 58.9372 141 57.7767C138.036 56.1144 135.169 54.2719 132.269 52.4944C131.686 52.1366 131.096 51.7581 130.588 51.3029C129.748 50.5468 129.588 49.739 130.044 49.0749C130.73 48.0734 131.441 47.9523 132.589 48.3123C134.107 48.7908 135.67 49.1228 137.222 49.4904C139.208 49.9605 141.201 50.3979 143.192 50.8499C143.241 50.7504 143.291 50.6472 143.34 50.5476L143.344 50.5485ZM141.32 53.9615C141.323 54.0346 141.325 54.1078 141.331 54.1817C142.107 54.5679 142.9 54.9238 143.657 55.3438C146.341 56.8279 149.112 58.1141 152.017 59.0947C153.915 59.7357 155.788 60.501 157.735 60.9394C159.806 61.4059 161.945 61.5936 164.066 61.8232C166.38 62.0775 168.682 61.8098 170.908 61.2077C174.644 60.1961 177.467 57.8202 179.839 54.8414C181.913 52.2341 183.355 49.3342 183.746 46.0125C183.91 44.6365 183.889 43.1995 183.685 41.8279C183.246 38.8829 181.778 36.4148 179.911 34.1115C178.072 31.8456 175.912 29.9075 173.492 28.4032C170.732 26.684 167.755 25.2288 164.721 24.0586C161.859 22.9542 158.787 22.2872 155.678 22.3528C152.489 22.4192 149.327 22.8392 146.361 24.1783C143.344 25.5403 140.636 27.2551 139.06 30.3305C137.724 32.9335 137.414 35.6246 138.347 38.4143C139.081 40.6128 140.361 42.4924 141.839 44.2602C144.595 47.5633 147.979 50.1001 151.588 52.3746C152.646 53.0429 153.731 53.6636 154.774 54.3547C154.996 54.5008 155.085 54.8531 155.232 55.1119C154.991 55.2138 154.748 55.4106 154.514 55.3958C152.827 55.2914 151.138 55.2096 149.466 54.9902C147.034 54.6671 144.622 54.2224 142.196 53.8549C141.919 53.8112 141.616 53.9217 141.324 53.9623L141.32 53.9615Z" fill="white"/>
<g clip-path="url(#clip1_176_150)">
<path d="M18.8222 15.0524C18.3232 15.7769 17.9063 16.5771 17.4522 17.3294C14.3466 22.4729 9.01375 25.9505 5.80724 31.0323C3.81175 34.1954 0.624652 36.5626 -1.24099 39.773C-1.91131 40.9274 -2.00612 42.2601 -2.65942 43.3685C-3.50643 44.8068 -5.17013 45.862 -6.27354 47.1098C-7.65533 48.6731 -8.76195 50.704 -8.43806 52.7651C-8.30206 53.6384 -7.91608 54.4533 -7.47202 55.2169C-5.84172 58.0131 -3.19812 60.4652 -0.487952 62.2016C2.86046 64.3456 6.54597 65.897 10.2101 67.4376C13.1884 68.6902 16.4621 69.9635 19.5642 69.0595C22.2088 68.2891 24.1493 66.0907 25.9373 63.9947C29.5334 59.778 33.1285 55.5634 36.7245 51.3467C37.5799 50.3443 38.4528 49.3112 38.9078 48.0747C39.5039 46.4558 39.3219 44.6647 39.0617 42.9584C38.1509 36.9725 36.3613 31.135 33.9244 25.5942C32.1322 21.5195 30.1223 14.9594 25.711 13.092C23.9842 12.3611 21.8713 12.3706 20.337 13.4491C19.7262 13.8784 19.2455 14.4375 18.8222 15.0524Z" fill="#0169FF"/>
<path d="M20.0613 43.1838C20.7572 43.871 21.3175 44.6095 21.7177 45.462C22.0699 46.2104 22.4167 46.9626 22.4922 47.8037C22.594 48.9277 22.2079 49.8867 21.4062 50.6397C19.9052 52.0518 18.107 52.3605 16.1438 51.9102C15.8459 51.8422 15.5561 51.7453 15.263 51.6581C14.9974 51.5796 14.8053 51.6317 14.6128 51.8647C14.1185 52.4651 13.753 53.1511 13.3084 53.7827C13.2052 53.9286 13.1103 54.0919 12.9751 54.2034C12.6841 54.4445 12.3506 54.4415 12.0451 54.2351C11.7769 54.0542 11.6665 53.5535 11.8562 53.2492C12.2544 52.6042 12.678 51.972 13.1202 51.3568C13.4872 50.8476 13.508 50.857 12.9536 50.5209C12.5629 50.2848 12.1725 50.0451 11.769 49.8345C11.5779 49.7346 11.4122 49.6836 11.2078 49.9488C10.6017 50.7362 9.75048 51.3081 9.22388 52.1826C9.0714 52.4349 8.71925 52.551 8.39568 52.4014C8.0721 52.2518 7.91861 51.9965 7.97738 51.6194C8.07223 51.0238 8.46736 50.6073 8.83778 50.1846C9.09268 49.8935 9.41697 49.6674 9.69455 49.3953C10.1467 48.952 9.99891 48.8254 9.62183 48.6255C8.41506 47.9853 7.36711 47.0732 6.05867 46.592C5.45852 46.3715 5.38033 45.7828 5.76785 45.3416C5.98668 45.0917 6.24457 45.1542 6.49737 45.217C7.12861 45.3741 7.7157 45.6375 8.26873 45.9793C8.65082 46.2152 8.90622 46.2029 9.15805 45.8355C9.80601 44.8858 10.6513 44.1025 11.352 43.1966C12.1002 42.2297 13.0457 41.4429 13.8822 40.5545C14.0519 40.3749 14.0702 40.2595 13.9984 40.0472C13.8339 39.567 14.2312 39.0153 14.7237 39.1062C15.173 39.1875 15.434 39.0491 15.723 38.7296C16.642 37.7135 17.6336 36.7663 18.4252 35.6366C18.6406 35.3277 18.527 35.2278 18.276 35.0559C17.8075 34.7372 17.2576 34.5631 16.8241 34.1778C16.5213 33.9101 16.5207 33.6038 16.6658 33.3181C16.8297 32.996 17.1507 32.8659 17.5184 32.9729C18.0698 33.1328 18.5379 33.4687 19.0346 33.7388C19.4118 33.9439 19.7479 34.2128 20.2023 34.244C20.305 34.2516 20.4417 34.3032 20.5208 34.4213C20.8095 34.8562 21.2797 35.052 21.708 35.2962C22.1217 35.534 22.3616 35.4397 22.8125 34.9522C23.3025 34.4222 23.7048 33.8291 24.0788 33.2156C24.337 32.7923 24.7041 32.6792 25.0923 32.8905C25.4498 33.0841 25.6198 33.6242 25.3872 33.9878C24.9062 34.7416 24.4354 35.5088 23.7483 36.1048C23.568 36.2609 23.5515 36.4084 23.7452 36.5469C24.1168 36.8143 24.4952 37.0724 24.8726 37.3324C25.043 37.4505 25.1814 37.3292 25.282 37.2309C25.8253 36.6963 26.3533 36.1485 26.7116 35.4618C26.9392 35.026 27.3892 34.8453 27.7494 35.0189C28.1325 35.2028 28.2816 35.6786 28.0642 36.1415C27.7614 36.7882 27.318 37.3367 26.811 37.8352C26.6614 37.9814 26.4953 38.1114 26.3557 38.2658C26.1981 38.4409 26.1722 38.6453 26.3456 38.8259C26.7224 39.2206 27.0521 39.6503 27.3493 40.1079C27.9164 40.9782 28.103 41.9305 27.9501 42.9459C27.8273 43.7588 27.2103 44.1215 26.5293 44.3879C25.3956 44.8326 24.2977 44.5025 23.2131 44.176C22.2198 43.8769 21.2 43.6534 20.2623 43.1869C20.2071 43.1595 20.1286 43.1841 20.0598 43.1843L20.0613 43.1838ZM19.4989 50.1734C19.8731 50.111 20.0155 49.8728 20.1965 49.7096C20.735 49.2215 21.1526 48.614 20.9857 47.8591C20.7266 46.688 20.2344 45.6154 19.3747 44.7319C18.2044 43.5285 16.9237 42.4565 15.5675 41.4716C15.3801 41.3359 15.204 41.344 15.0404 41.5076C14.4394 42.1036 13.8348 42.6993 13.2601 43.3147C12.2275 44.422 11.304 45.631 10.3164 46.7799C10.0962 47.0354 10.1138 47.1545 10.398 47.3139C11.5182 47.9437 12.6331 48.5825 13.7438 49.2281C14.2078 49.4985 14.6508 49.8044 15.2207 49.8177C15.4034 49.8226 15.5683 49.9306 15.67 50.0902C15.7701 50.2452 15.9214 50.2947 16.079 50.3469C17.2778 50.7525 18.4517 50.687 19.4974 50.174L19.4989 50.1734ZM26.3251 41.2964C25.877 40.5361 25.3648 39.8379 24.7526 39.2671C23.8861 38.4568 22.9911 37.6349 21.7897 37.3044C21.7263 37.287 21.6571 37.2409 21.6198 37.1878C21.307 36.7345 20.8025 36.5346 20.3678 36.2462C20.127 36.0877 19.925 36.109 19.7395 36.379C18.975 37.4847 18.0594 38.4599 17.1123 39.4109C16.6508 39.8749 16.7824 39.9267 17.2501 40.1251C17.4036 40.1893 17.5505 40.268 17.7002 40.3405C19.7158 41.3203 21.7273 42.312 23.9239 42.8375C24.5904 42.9967 25.2555 43.2341 25.9551 43.0123C26.2178 42.9283 26.486 42.7769 26.4947 42.4997C26.5077 42.0884 26.4278 41.6726 26.323 41.2955L26.3251 41.2964Z" fill="white"/>
</g>
<defs>
<clipPath id="clip0_176_150">
<rect width="88.3946" height="146.215" fill="white" transform="translate(212 -37.6957)"/>
</clipPath>
<clipPath id="clip1_176_150">
<rect width="51.8991" height="49.451" fill="white" transform="translate(28.248 10.3043) rotate(69.2649)"/>
</clipPath>
</defs>
</svg>
