<svg width="1891" height="998" viewBox="0 0 1891 998" fill="none" xmlns="http://www.w3.org/2000/svg">
<g clip-path="url(#clip0_176_150)">
<path d="M1646.78 463.519C1646.27 463.136 1645.77 462.754 1645.26 462.371C1613.58 438.599 1607.16 393.636 1630.94 361.953L1691.37 281.414C1715.14 249.731 1760.11 243.31 1791.79 267.096C1792.29 267.478 1792.8 267.861 1793.31 268.243C1824.99 292.016 1831.41 336.965 1807.64 368.661C1788.5 394.169 1766.3 423.762 1747.2 449.214C1723.42 480.897 1678.47 487.305 1646.79 463.519H1646.78Z" fill="#ADADAD"/>
<path d="M1648.18 461.347C1628.73 446.755 1617.43 423.939 1619.37 399.443C1620.61 383.745 1627.57 370.711 1636.8 358.415C1653.83 335.722 1670.85 313.042 1687.87 290.349C1696.19 279.269 1704.8 269.173 1717.51 262.751C1738.9 251.958 1765.12 253.065 1785.42 265.866C1806.02 278.859 1819.4 300.937 1819.4 325.543C1819.4 353.305 1801.26 372.828 1785.53 393.8C1775.03 407.79 1764.53 421.781 1754.03 435.784C1745.32 447.384 1737.18 458.737 1724.35 466.087C1700.22 479.914 1670.48 477.618 1648.18 461.36C1645.49 459.407 1642.66 463.724 1645.36 465.691C1665.17 480.132 1690.76 484.409 1714.04 476.402C1741.44 466.975 1755.87 441.932 1772.42 419.895C1782.63 406.287 1792.84 392.68 1803.06 379.058C1811.04 368.416 1818.46 358.169 1821.98 345.149C1828.16 322.264 1822.93 297.18 1807.95 278.763C1777.09 240.796 1718.76 241.493 1689.06 280.212C1671.15 303.561 1653.73 327.292 1636.08 350.832C1625.85 364.467 1616.92 377.911 1614.62 395.399C1610.97 422.969 1623.43 449.242 1645.37 465.705C1648.03 467.7 1650.85 463.369 1648.2 461.374L1648.18 461.347Z" fill="#2E2D2B"/>
<mask id="mask0_176_150" style="mask-type:luminance" maskUnits="userSpaceOnUse" x="1616" y="252" width="206" height="226">
<path d="M1646.78 463.519C1646.27 463.136 1645.77 462.754 1645.26 462.371C1613.58 438.599 1607.16 393.636 1630.94 361.953L1691.37 281.414C1715.14 249.731 1760.11 243.31 1791.79 267.096C1792.29 267.478 1792.8 267.861 1793.31 268.243C1824.99 292.016 1831.41 336.965 1807.64 368.661C1788.5 394.169 1766.3 423.761 1747.2 449.214C1723.42 480.897 1678.47 487.305 1646.79 463.519H1646.78Z" fill="white"/>
</mask>
<g mask="url(#mask0_176_150)">
<path d="M1565.37 470.609C1660.45 457.043 1755.53 443.49 1850.62 429.923C1853.93 429.459 1852.9 424.376 1849.62 424.854C1754.53 438.421 1659.46 451.974 1564.37 465.541C1561.06 466.005 1562.09 471.088 1565.37 470.609Z" fill="#2E2D2B"/>
<path d="M1551.28 442.356C1646.37 428.789 1741.44 415.236 1836.53 401.669C1839.84 401.205 1838.82 396.123 1835.54 396.601C1740.45 410.167 1645.37 423.72 1550.28 437.287C1546.98 437.752 1548 442.834 1551.28 442.356Z" fill="#2E2D2B"/>
<path d="M1537.19 414.102C1632.28 400.535 1727.36 386.982 1822.45 373.416C1825.76 372.951 1824.73 367.869 1821.45 368.347C1726.36 381.914 1631.29 395.467 1536.2 409.033C1532.89 409.498 1533.91 414.58 1537.19 414.102Z" fill="#2E2D2B"/>
<path d="M1523.11 385.849C1618.2 372.282 1713.27 358.729 1808.36 345.162C1811.67 344.698 1810.64 339.615 1807.37 340.093C1712.28 353.66 1617.2 367.213 1522.11 380.78C1518.8 381.244 1519.83 386.327 1523.11 385.849Z" fill="#2E2D2B"/>
<path d="M1509.02 357.595C1604.11 344.028 1699.19 330.475 1794.28 316.909C1797.58 316.444 1796.56 311.362 1793.28 311.84C1698.19 325.406 1603.11 338.959 1508.02 352.526C1504.72 352.991 1505.74 358.073 1509.02 357.595Z" fill="#2E2D2B"/>
<path d="M1617.46 274.938C1631.03 370.027 1644.58 465.103 1658.15 560.193C1658.61 563.499 1663.69 562.475 1663.21 559.196C1649.65 464.106 1636.09 369.03 1622.53 273.94C1622.06 270.634 1616.98 271.659 1617.46 274.938Z" fill="#2E2D2B"/>
<path d="M1645.71 260.852C1659.28 355.942 1672.83 451.018 1686.4 546.107C1686.86 549.414 1691.95 548.389 1691.47 545.11C1677.9 450.02 1664.35 354.944 1650.78 259.855C1650.32 256.548 1645.24 257.573 1645.71 260.852Z" fill="#2E2D2B"/>
<path d="M1673.97 246.766C1687.53 341.856 1701.09 436.932 1714.65 532.021C1715.12 535.328 1720.2 534.303 1719.72 531.024C1706.16 435.934 1692.6 340.858 1679.04 245.769C1678.57 242.463 1673.49 243.487 1673.97 246.766Z" fill="#2E2D2B"/>
<path d="M1702.22 232.68C1715.79 327.77 1729.34 422.846 1742.91 517.936C1743.37 521.242 1748.45 520.217 1747.98 516.938C1734.41 421.849 1720.86 326.773 1707.29 231.683C1706.83 228.377 1701.74 229.401 1702.22 232.68Z" fill="#2E2D2B"/>
<path d="M1730.48 218.595C1744.04 313.684 1757.59 408.76 1771.16 503.85C1771.63 507.156 1776.71 506.131 1776.23 502.852C1762.66 407.763 1749.11 312.687 1735.54 217.597C1735.08 214.291 1730 215.316 1730.48 218.595Z" fill="#2E2D2B"/>
<path d="M1664.28 295.923C1684.02 310.733 1779.96 382.72 1799.7 397.53C1799.7 397.53 1867 315.16 1796.65 262.382C1726.31 209.591 1664.28 295.923 1664.28 295.923Z" fill="#757575"/>
<path d="M1662.86 298.082C1708 331.951 1753.14 365.82 1798.28 399.688C1799.48 400.59 1801.03 399.962 1801.86 398.937C1823.46 372.391 1838.93 332.388 1827.44 298.683C1818.23 271.7 1791.71 249.963 1764.02 244.225C1739.87 239.238 1716.05 247.572 1696.35 261.371C1683.49 270.375 1671.34 281.701 1662.12 294.489C1660.17 297.18 1664.5 300.022 1666.45 297.317C1685.57 270.826 1718.52 246.329 1752.4 247.927C1780.56 249.253 1808.92 269.172 1820.41 294.817C1829.81 315.829 1826.48 339.533 1818.15 360.286C1813.06 372.924 1806.18 385.493 1797.54 396.095L1801.12 395.344C1755.98 361.475 1710.84 327.606 1665.7 293.737C1663.04 291.743 1660.22 296.073 1662.87 298.068L1662.86 298.082Z" fill="#2E2D2B"/>
<path d="M1767.6 303.014C1763.69 298.328 1755.9 297.604 1751.19 301.47C1746.45 305.377 1745.69 313.247 1749.64 317.974C1753.58 322.701 1761.45 323.384 1766.15 319.422C1770.81 315.488 1771.5 307.686 1767.6 303.014Z" fill="#5B5B5B"/>
<path d="M1769.52 301.279C1765.63 296.757 1759.07 295.322 1753.52 297.262C1748.02 299.175 1744.52 304.708 1744.52 310.474C1744.52 316.485 1748.03 321.813 1753.8 323.781C1759.47 325.721 1765.91 324.109 1769.7 319.409C1773.85 314.258 1773.61 306.361 1769.51 301.279C1768.63 300.2 1766.86 300.186 1765.86 301.088C1764.78 302.058 1764.78 303.642 1765.67 304.735C1767.9 307.482 1768.2 311.976 1766.32 315.187C1764.34 318.603 1760.52 320.051 1756.56 319.204C1752.89 318.425 1750.31 315.652 1749.77 311.963C1749.22 308.274 1750.91 304.271 1754.12 302.59C1757.85 300.65 1762.85 301.47 1765.66 304.722C1767.83 307.236 1771.68 303.793 1769.51 301.265L1769.52 301.279Z" fill="#2E2D2B"/>
</g>
<path d="M1648.18 461.347C1628.73 446.755 1617.43 423.939 1619.37 399.443C1620.61 383.745 1627.57 370.711 1636.8 358.415C1653.83 335.722 1670.85 313.042 1687.87 290.349C1696.19 279.269 1704.8 269.173 1717.51 262.751C1738.9 251.958 1765.12 253.065 1785.42 265.866C1806.02 278.859 1819.4 300.937 1819.4 325.543C1819.4 353.305 1801.26 372.828 1785.53 393.8C1775.03 407.79 1764.53 421.78 1754.03 435.784C1745.32 447.384 1737.18 458.737 1724.35 466.087C1700.22 479.914 1670.48 477.618 1648.18 461.36C1645.49 459.406 1642.66 463.724 1645.36 465.691C1665.17 480.132 1690.76 484.409 1714.04 476.402C1741.44 466.975 1755.87 441.932 1772.42 419.895C1782.63 406.287 1792.84 392.68 1803.06 379.058C1811.04 368.416 1818.46 358.169 1821.98 345.149C1828.16 322.264 1822.93 297.18 1807.95 278.763C1777.09 240.796 1718.76 241.493 1689.06 280.212C1671.15 303.561 1653.73 327.292 1636.08 350.832C1625.85 364.467 1616.92 377.911 1614.62 395.399C1610.97 422.969 1623.43 449.242 1645.37 465.705C1648.03 467.699 1650.85 463.369 1648.2 461.374L1648.18 461.347Z" fill="#2E2D2B"/>
<path d="M1651.95 296.251L1803 409.594C1805.37 411.37 1808.87 410.864 1811.08 408.405C1828.59 388.882 1894.3 306.197 1812.12 244.539C1730.31 183.155 1666.08 265.784 1651.03 287.876C1649.09 290.732 1649.48 294.407 1651.94 296.251H1651.95ZM1801.09 258.065C1868.49 308.629 1821.07 370.834 1806.24 387.474C1804.03 389.947 1800.53 390.453 1798.15 388.677L1672.98 294.762C1670.49 292.89 1670.13 289.174 1672.11 286.319C1685.09 267.615 1734.09 207.815 1801.08 258.079L1801.09 258.065Z" fill="#5B5B5B"/>
<path d="M1650.53 298.41C1676.1 317.592 1701.65 336.76 1727.21 355.942C1744.27 368.743 1761.35 381.559 1778.41 394.36C1784.1 398.623 1789.78 402.886 1795.46 407.162C1797.84 408.952 1800.31 411.411 1803.12 412.545C1810.53 415.578 1815.82 407.012 1819.78 402.079C1825.33 395.18 1830.45 387.912 1835.02 380.329C1846.26 361.653 1854.74 340.38 1855.09 318.33C1855.5 291.975 1843.13 268.407 1823.85 250.906C1802.58 231.588 1774.98 217.775 1745.67 219.947C1720.18 221.833 1697.16 235.235 1678.6 252.122C1670.82 259.185 1663.7 266.959 1657.17 275.184C1652.34 281.264 1642.91 290.445 1650 297.986C1652.27 300.405 1656.14 296.962 1653.85 294.53C1649.52 289.912 1661.31 278.176 1663.99 274.938C1669.84 267.875 1676.19 261.221 1683.01 255.1C1698.9 240.864 1717.94 229.306 1739.27 225.877C1767.42 221.354 1794.38 233.036 1815.79 250.728C1836.21 267.588 1850.33 290.964 1849.92 317.988C1849.59 338.973 1841.64 359.166 1831 376.982C1826.81 383.991 1822.16 390.726 1817.12 397.147C1814.35 400.686 1809.43 409.32 1803.99 407.135C1801.3 406.055 1798.48 402.995 1796.19 401.287L1779.49 388.759C1763.77 376.955 1748.03 365.15 1732.3 353.346C1705.99 333.59 1679.66 313.848 1653.35 294.093C1650.68 292.098 1647.87 296.429 1650.52 298.424L1650.53 298.41Z" fill="#2E2D2B"/>
<path d="M1799.67 260.224C1817.64 273.941 1832.35 292.603 1833.64 315.966C1834.54 332.47 1828.95 348.715 1820.82 362.882C1817.56 368.566 1807.23 388.813 1799.08 386.163C1796.83 385.425 1794.19 382.488 1792.32 381.08C1787.94 377.788 1783.55 374.495 1779.15 371.203C1753.67 352.075 1728.19 332.962 1702.7 313.835C1694.25 307.495 1685.8 301.156 1677.35 294.817C1674.03 292.316 1672.91 290.745 1675.44 286.086C1677.97 281.428 1682.48 276.905 1686.11 272.984C1698.05 260.046 1712.78 248.747 1729.9 243.774C1754.98 236.492 1779.33 245.236 1799.69 260.251C1802.36 262.218 1805.19 257.901 1802.51 255.92C1783.65 242.012 1761.09 232.926 1737.36 236.793C1719.8 239.648 1703.97 249.062 1690.96 260.893C1685.63 265.743 1680.73 271.044 1676.19 276.646C1672.68 280.977 1666.67 286.906 1668.75 292.986C1669.8 296.087 1672.67 297.754 1675.14 299.612C1679.38 302.782 1683.6 305.965 1687.83 309.135C1715.98 330.257 1744.13 351.379 1772.28 372.501C1780.2 378.444 1787.95 385.125 1796.27 390.508C1806.69 397.243 1816.14 379.892 1820.9 372.651C1831.29 356.871 1839.05 338.345 1838.88 319.19C1838.66 292.699 1822.86 271.495 1802.51 255.947C1799.88 253.925 1797.05 258.256 1799.69 260.278L1799.67 260.224Z" fill="#2E2D2B"/>
<path d="M1832.54 194.631C1823.84 206.23 1806.42 229.442 1797.71 241.055L1815.94 254.745C1824.65 243.146 1842.07 219.934 1850.78 208.321C1850.78 208.321 1852.46 201.093 1845.48 195.847C1839.39 191.27 1832.54 194.631 1832.54 194.631Z" fill="#5B5B5B"/>
<path d="M1830.39 193.224C1818.77 208.703 1807.16 224.169 1795.55 239.648C1794.67 240.81 1795.23 242.435 1796.3 243.228C1802.38 247.791 1808.46 252.354 1814.54 256.917C1815.7 257.792 1817.32 257.232 1818.12 256.166C1828.85 241.862 1839.58 227.557 1850.3 213.253C1851.97 211.039 1853.49 209.427 1853.54 206.599C1853.61 202.514 1851.97 198.511 1849.1 195.601C1844.51 190.928 1837.37 189.494 1831.4 192.322C1828.39 193.757 1830.7 198.374 1833.7 196.954C1839.18 194.344 1845.97 197.432 1847.89 203.156C1848.3 204.372 1848.42 205.656 1848.36 206.941C1848.36 207.269 1848.36 207.678 1848.24 207.993C1848.76 206.599 1847.49 208.43 1847.46 208.471C1845.39 211.231 1843.32 213.99 1841.25 216.75C1832.09 228.951 1822.94 241.137 1813.8 253.338L1817.38 252.586C1811.3 248.023 1805.22 243.46 1799.14 238.897L1799.89 242.476C1811.5 226.997 1823.12 211.531 1834.73 196.052C1836.72 193.388 1832.39 190.573 1830.4 193.224H1830.39Z" fill="#2E2D2B"/>
<path d="M1859.27 159.054C1830.67 101.686 1773.47 -13.0633 1744.87 -70.4314L1724.46 -60.2666C1753.06 -2.89856 1810.25 111.838 1838.86 169.206C1838.86 169.206 1854.36 198.812 1864.27 193.88C1875.02 188.524 1859.27 159.027 1859.27 159.027V159.054Z" fill="#5B5B5B"/>
<path d="M1861.58 157.893C1830.93 96.3991 1800.27 34.9187 1769.63 -26.5754C1762.16 -41.5766 1754.67 -56.5778 1747.2 -71.579C1746.57 -72.8223 1744.98 -73.3688 1743.73 -72.7403C1736.92 -69.3521 1730.12 -65.9638 1723.31 -62.5756C1722.07 -61.9471 1721.52 -60.3623 1722.15 -59.1053C1747.25 -8.77339 1772.33 41.5722 1797.43 91.9042C1809.36 115.841 1821.3 139.777 1833.23 163.713C1836.45 170.189 1839.77 176.419 1843.92 182.362C1847.76 187.841 1853.95 196.872 1861.58 197.022C1879.95 197.377 1865.43 165.161 1861.58 157.893C1860.02 154.956 1855.39 157.251 1856.95 160.202C1859.75 165.489 1862.18 171.132 1863.84 176.87C1865.8 183.674 1866.19 197.404 1856.18 188.838C1844.4 178.769 1838.06 161.814 1831.34 148.329C1808.13 101.768 1784.93 55.2209 1761.72 8.65971C1750.08 -14.7028 1738.42 -38.0654 1726.78 -61.4279C1726.4 -60.2666 1726.01 -59.119 1725.62 -57.9577C1732.43 -61.346 1739.23 -64.7342 1746.03 -68.1225C1744.87 -68.505 1743.73 -68.9012 1742.56 -69.2838C1773.21 -7.78971 1803.87 53.6907 1834.51 115.185C1841.98 130.186 1849.47 145.187 1856.95 160.188C1858.43 163.167 1863.05 160.858 1861.58 157.879V157.893Z" fill="#2E2D2B"/>
<path d="M1880.73 164.792C1870.39 152.387 1849.72 150.447 1837.26 160.721C1824.7 171.063 1822.71 191.94 1833.16 204.441C1843.57 216.969 1864.46 218.772 1876.89 208.293C1889.24 197.883 1891.07 177.212 1880.73 164.792Z" fill="#5B5B5B"/>
<path d="M1882.64 163.071C1873.64 152.592 1858.3 148.958 1845.33 153.384C1832.01 157.92 1823.83 170.982 1823.84 184.849C1823.85 198.866 1832.15 211.217 1845.54 215.794C1858.61 220.261 1873.95 216.86 1882.75 205.93C1892.52 193.784 1892.4 175.135 1882.66 163.085C1880.57 160.503 1876.73 163.945 1878.8 166.541C1886.18 175.668 1886.8 189.344 1880.95 199.426C1874.94 209.796 1862.76 214.236 1851.22 211.996C1839.69 209.755 1831.05 201.011 1829.32 189.371C1827.61 177.963 1832.67 165.38 1843.16 159.901C1854.81 153.822 1870.21 156.54 1878.8 166.528C1880.98 169.042 1884.83 165.599 1882.66 163.071H1882.64Z" fill="#2E2D2B"/>
<path d="M1867.93 177.007C1863.28 171.432 1853.99 170.558 1848.38 175.176C1842.73 179.821 1841.83 189.221 1846.53 194.836C1851.22 200.465 1860.6 201.285 1866.19 196.571C1871.74 191.885 1872.56 182.595 1867.91 177.02L1867.93 177.007Z" fill="#757575"/>
<path d="M1869.85 175.285C1865.37 170.08 1857.79 168.372 1851.38 170.599C1844.98 172.826 1840.93 179.22 1840.93 185.928C1840.93 192.869 1845 199.017 1851.66 201.285C1858.19 203.512 1865.67 201.694 1870.03 196.271C1874.83 190.3 1874.61 181.16 1869.85 175.272C1867.76 172.689 1863.93 176.132 1866 178.728C1868.9 182.321 1869.13 187.827 1866.84 191.789C1864.39 196.011 1859.46 197.787 1854.76 196.803C1850.18 195.847 1846.9 192.39 1846.21 187.773C1845.51 183.155 1847.53 178.236 1851.67 176.078C1856.37 173.632 1862.55 174.711 1866 178.742C1868.17 181.256 1872.03 177.813 1869.85 175.285Z" fill="#2E2D2B"/>
</g>
<path d="M1653 785.16C1652.52 784.728 1652.03 784.312 1651.55 783.875C1647.74 780.411 1644.37 776.62 1641.49 772.293C1638.64 768.018 1636.63 763.49 1635.9 758.471C1635.02 752.426 1636.05 746.709 1639.39 741.388C1642.15 736.983 1645.71 733.452 1650.03 730.753C1657.02 726.395 1664.72 724.096 1672.95 723.51C1678.48 723.114 1683.99 723.366 1689.32 724.688C1693.52 725.724 1697.54 727.533 1701.6 729.105C1704.05 730.048 1706.53 730.985 1708.79 732.29C1711.96 734.115 1714.95 736.265 1718 738.295C1725.33 743.169 1731.02 749.54 1735.09 757.31C1737.7 762.31 1739.29 767.681 1738.86 773.348C1738.57 777.239 1738.05 781.244 1736.81 784.911C1735.15 789.821 1732.06 794.064 1728.9 798.213C1725.18 803.088 1720.7 807.001 1715.25 809.668C1710.06 812.208 1704.54 813.567 1698.68 813.901C1689.96 814.394 1681.65 812.505 1673.43 810.168C1669.16 808.952 1665.07 807.067 1660.97 805.287C1656.72 803.433 1652.46 801.561 1648.42 799.292C1642.62 796.042 1637.02 792.439 1631.35 788.964C1630.21 788.265 1629.05 787.525 1628.06 786.635C1626.42 785.156 1626.11 783.577 1627 782.279C1628.34 780.321 1629.73 780.084 1631.97 780.788C1634.94 781.723 1638 782.372 1641.03 783.091C1644.91 784.01 1648.81 784.865 1652.7 785.749C1652.8 785.554 1652.9 785.353 1652.99 785.158L1653 785.16ZM1649.04 791.833C1649.05 791.976 1649.05 792.119 1649.07 792.263C1650.58 793.018 1652.13 793.714 1653.61 794.535C1658.86 797.437 1664.28 799.951 1669.96 801.869C1673.67 803.122 1677.33 804.618 1681.14 805.475C1685.19 806.387 1689.37 806.754 1693.51 807.203C1698.04 807.7 1702.54 807.177 1706.89 806C1714.2 804.022 1719.72 799.377 1724.35 793.553C1728.41 788.455 1731.23 782.785 1731.99 776.291C1732.31 773.601 1732.27 770.791 1731.87 768.11C1731.01 762.352 1728.14 757.526 1724.49 753.023C1720.9 748.593 1716.68 744.804 1711.94 741.863C1706.55 738.501 1700.73 735.656 1694.79 733.368C1689.2 731.209 1683.19 729.905 1677.12 730.033C1670.88 730.163 1664.7 730.984 1658.9 733.602C1653 736.265 1647.71 739.618 1644.62 745.631C1642.01 750.72 1641.41 755.981 1643.23 761.436C1644.67 765.734 1647.17 769.409 1650.06 772.865C1655.45 779.323 1662.06 784.283 1669.12 788.73C1671.19 790.037 1673.31 791.25 1675.35 792.601C1675.78 792.887 1675.96 793.576 1676.24 794.082C1675.77 794.281 1675.3 794.666 1674.84 794.637C1671.54 794.433 1668.24 794.273 1664.97 793.844C1660.21 793.212 1655.5 792.343 1650.76 791.624C1650.22 791.539 1649.62 791.755 1649.05 791.834L1649.04 791.833Z" fill="white"/>
<g clip-path="url(#clip1_176_150)">
<path d="M327.988 554.895C327.432 554.591 326.875 554.287 326.319 553.984C291.63 534.864 247.998 547.48 228.884 582.182L180.279 670.362C161.159 705.052 173.775 748.683 208.477 767.797C209.034 768.101 209.59 768.405 210.147 768.709C244.836 787.829 288.455 775.218 307.587 740.523C322.98 712.593 340.84 680.195 356.199 652.324C375.319 617.635 362.696 574.022 327.994 554.907L327.988 554.895Z" fill="#ADADAD"/>
<path d="M326.585 557.07C305.29 545.327 279.846 544.398 258.309 556.23C244.508 563.813 235.481 575.507 228.065 588.979C214.368 613.822 200.684 638.66 186.988 663.502C180.304 675.64 174.635 687.635 174 701.857C172.949 725.798 184.728 749.247 204.74 762.498C225.05 775.944 250.674 779.069 273.107 768.96C298.418 757.556 308.765 732.993 321.425 710.041C329.864 694.715 338.309 679.401 346.76 664.069C353.761 651.37 360.767 639.282 362.198 624.566C364.892 596.888 350.58 570.714 326.598 557.064C323.711 555.413 326.485 551.061 329.385 552.707C350.689 564.836 365.1 586.409 367.365 610.924C370.029 639.784 353.123 663.225 339.828 687.363C331.62 702.27 323.406 717.165 315.186 732.078C308.76 743.725 302.466 754.698 292.043 763.261C273.716 778.292 248.696 783.826 225.754 777.74C178.459 765.198 155.134 711.737 178.234 668.751C192.163 642.829 206.644 617.198 220.854 591.434C229.082 576.503 237.673 562.846 252.669 553.557C276.307 538.905 305.379 539.472 329.403 552.714C332.316 554.323 329.523 558.668 326.616 557.071L326.585 557.07Z" fill="#2E2D2B"/>
<mask id="mask1_176_150" style="mask-type:luminance" maskUnits="userSpaceOnUse" x="171" y="545" width="195" height="233">
<path d="M327.988 554.895C327.432 554.591 326.875 554.287 326.319 553.983C291.63 534.863 247.998 547.48 228.884 582.182L180.279 670.362C161.159 705.051 173.775 748.683 208.477 767.797C209.034 768.101 209.59 768.405 210.147 768.708C244.836 787.828 288.455 775.217 307.587 740.522C322.98 712.593 340.84 680.194 356.199 652.324C375.319 617.635 362.696 574.022 327.994 554.907L327.988 554.895Z" fill="white"/>
</mask>
<g mask="url(#mask1_176_150)">
<path d="M301.009 477.757C327.704 570.025 354.405 662.276 381.1 754.544C382.035 757.75 376.98 758.903 376.069 755.717C349.374 663.449 322.673 571.198 295.978 478.93C295.043 475.724 300.098 474.571 301.009 477.757Z" fill="#2E2D2B"/>
<path d="M269.464 476.521C296.159 568.789 322.86 661.04 349.555 753.308C350.49 756.514 345.435 757.667 344.524 754.481C317.829 662.213 291.128 569.962 264.433 477.694C263.499 474.488 268.553 473.335 269.464 476.521Z" fill="#2E2D2B"/>
<path d="M237.917 475.285C264.612 567.554 291.313 659.804 318.008 752.073C318.943 755.278 313.888 756.432 312.977 753.246C286.282 660.977 259.581 568.727 232.886 476.458C231.952 473.253 237.006 472.099 237.917 475.285Z" fill="#2E2D2B"/>
<path d="M206.372 474.05C233.067 566.318 259.769 658.569 286.463 750.837C287.398 754.043 282.343 755.196 281.432 752.01C254.738 659.742 228.036 567.491 201.341 475.222C200.407 472.017 205.461 470.864 206.372 474.05Z" fill="#2E2D2B"/>
<path d="M174.826 472.814C201.52 565.083 228.222 657.333 254.916 749.602C255.851 752.807 250.796 753.961 249.885 750.775C223.191 658.506 196.489 566.256 169.795 473.987C168.86 470.782 173.915 469.628 174.826 472.814Z" fill="#2E2D2B"/>
<path d="M144.012 605.635C236.28 578.941 328.531 552.239 420.799 525.545C424.005 524.61 425.158 529.665 421.972 530.576C329.704 557.27 237.453 583.972 145.185 610.666C141.979 611.601 140.826 606.546 144.012 605.635Z" fill="#2E2D2B"/>
<path d="M142.777 637.182C235.046 610.487 327.296 583.786 419.565 557.091C422.77 556.156 423.924 561.211 420.738 562.122C328.469 588.817 236.219 615.518 143.95 642.213C140.745 643.147 139.591 638.093 142.777 637.182Z" fill="#2E2D2B"/>
<path d="M141.541 668.727C233.81 642.033 326.06 615.331 418.329 588.637C421.534 587.702 422.688 592.757 419.502 593.668C327.233 620.362 234.982 647.064 142.714 673.758C139.509 674.693 138.355 669.639 141.541 668.727Z" fill="#2E2D2B"/>
<path d="M140.305 700.274C232.573 673.579 324.824 646.878 417.092 620.183C420.298 619.248 421.451 624.303 418.265 625.214C325.997 651.909 233.746 678.61 141.478 705.305C138.272 706.24 137.119 701.185 140.305 700.274Z" fill="#2E2D2B"/>
<path d="M139.07 731.82C231.339 705.125 323.589 678.424 415.858 651.729C419.063 650.794 420.217 655.849 417.031 656.76C324.762 683.455 232.512 710.156 140.243 736.851C137.038 737.785 135.884 732.731 139.07 731.82Z" fill="#2E2D2B"/>
<path d="M182.378 639.701C203.991 651.616 309.035 709.511 330.647 721.426C330.647 721.426 283.196 816.624 206.179 774.168C129.149 731.718 182.378 639.701 182.378 639.701Z" fill="#757575"/>
<path d="M183.763 637.519C233.186 664.761 282.609 692.003 332.032 719.244C333.348 719.97 333.409 721.636 332.817 722.817C317.488 753.415 287.37 783.949 251.92 787.32C223.536 790.009 192.824 774.761 176.216 751.87C161.752 731.908 159.562 706.761 164.049 683.13C166.977 667.71 172.313 651.984 180.184 638.323C181.835 635.436 186.205 638.217 184.541 641.109C168.241 669.418 159.444 709.526 174.821 739.761C187.597 764.889 217.41 782.565 245.51 782.506C268.529 782.443 288.771 769.666 304.269 753.542C313.703 743.717 322.334 732.275 328.453 720.048L329.238 723.62C279.815 696.378 230.392 669.136 180.969 641.895C178.056 640.285 180.849 635.94 183.756 637.537L183.763 637.519Z" fill="#2E2D2B"/>
<path d="M231.286 730.983C225.409 729.345 221.549 722.543 223.138 716.657C224.753 710.73 231.619 706.812 237.551 708.469C243.477 710.115 247.333 717.009 245.651 722.922C243.978 728.786 237.152 732.626 231.286 730.983Z" fill="#5B5B5B"/>
<path d="M230.495 733.451C224.773 731.759 220.771 726.37 220.261 720.515C219.743 714.71 223.351 709.248 228.607 706.879C234.088 704.41 240.388 705.422 244.55 709.87C248.648 714.243 249.828 720.784 247.097 726.166C244.108 732.068 236.807 735.088 230.49 733.439C229.146 733.085 228.404 731.472 228.817 730.192C229.258 728.809 230.702 728.158 232.064 728.519C235.482 729.421 239.704 727.849 241.862 724.823C244.162 721.614 243.911 717.531 241.511 714.267C239.297 711.248 235.708 710.034 232.12 711.051C228.532 712.068 225.579 715.257 225.366 718.875C225.129 723.072 227.931 727.294 232.046 728.512C235.23 729.46 233.674 734.387 230.477 733.445L230.495 733.451Z" fill="#2E2D2B"/>
</g>
<path d="M326.585 557.07C305.29 545.326 279.846 544.398 258.309 556.23C244.508 563.813 235.481 575.507 228.065 588.979C214.368 613.822 200.684 638.659 186.988 663.502C180.304 675.64 174.635 687.635 174 701.857C172.949 725.798 184.728 749.246 204.74 762.497C225.05 775.944 250.674 779.068 273.107 768.96C298.418 757.555 308.765 732.993 321.425 710.041C329.864 694.715 338.309 679.401 346.76 664.069C353.761 651.369 360.767 639.282 362.198 624.566C364.892 596.888 350.58 570.714 326.598 557.064C323.711 555.413 326.485 551.061 329.385 552.706C350.689 564.835 365.1 586.409 367.365 610.924C370.029 639.783 353.123 663.225 339.828 687.363C331.62 702.27 323.406 717.165 315.186 732.078C308.76 743.725 302.466 754.698 292.043 763.26C273.716 778.292 248.696 783.826 225.754 777.739C178.459 765.198 155.134 711.736 178.234 668.75C192.163 642.828 206.644 617.198 220.854 591.434C229.082 576.503 237.673 562.846 252.669 553.557C276.307 538.905 305.379 539.472 329.403 552.713C332.316 554.323 329.523 558.668 326.616 557.071L326.585 557.07Z" fill="#2E2D2B"/>
<path d="M177.613 628.33L343.002 719.484C345.593 720.91 346.569 724.306 345.236 727.334C334.631 751.324 286.237 845.193 196.262 795.598C106.688 746.228 155.639 653.726 169.595 630.924C171.402 627.982 174.915 626.834 177.607 628.318L177.613 628.33ZM204.065 779.99C277.852 820.664 315.084 751.874 324.166 731.523C325.511 728.489 324.535 725.093 321.939 723.655L184.893 648.112C182.165 646.614 178.625 647.804 176.836 650.784C165.115 670.301 130.726 739.547 204.071 779.972L204.065 779.99Z" fill="#5B5B5B"/>
<path d="M178.997 626.148C206.986 641.574 234.958 656.992 262.948 672.418C281.629 682.717 300.329 693.022 319.011 703.321C325.232 706.752 331.453 710.182 337.687 713.607C340.295 715.04 343.553 716.284 345.737 718.372C351.55 723.889 345.912 732.229 343.043 737.867C339.032 745.759 334.51 753.416 329.471 760.691C317.063 778.615 301.154 795.089 281.19 804.459C257.33 815.66 230.764 814.069 206.888 803.683C180.536 792.225 156.605 772.737 146.541 745.114C137.793 721.108 140.555 694.614 148.323 670.749C151.57 660.759 155.733 651.076 160.549 641.743C164.105 634.836 168.603 622.47 178.392 625.836C181.528 626.911 179.978 631.85 176.823 630.769C170.834 628.717 164.977 644.288 163.125 648.06C159.088 656.293 155.631 664.818 152.852 673.548C146.4 693.883 143.686 715.996 149.32 736.848C156.759 764.366 178.489 784.156 203.414 796.406C227.171 808.09 254.287 811.367 278.757 799.891C297.755 790.971 312.898 775.426 324.769 758.404C329.436 751.701 333.669 744.699 337.452 737.465C339.539 733.482 345.391 725.451 341.164 721.391C339.074 719.381 335.128 718.072 332.628 716.681L314.347 706.606C297.125 697.118 279.897 687.618 262.675 678.13C233.853 662.255 205.038 646.362 176.217 630.488C173.304 628.878 176.096 624.533 179.004 626.13L178.997 626.148Z" fill="#2E2D2B"/>
<path d="M205.449 777.807C225.336 788.552 248.396 794.301 270.223 785.874C285.641 779.916 298.156 768.148 307.733 754.916C311.574 749.604 325.791 731.87 320.029 725.535C318.431 723.782 314.669 722.585 312.617 721.457C307.814 718.811 303.01 716.165 298.201 713.507C270.295 698.134 242.401 682.755 214.489 667.369C205.241 662.275 195.987 657.169 186.739 652.076C183.095 650.076 181.203 649.7 177.993 653.918C174.784 658.136 172.513 664.105 170.431 669.029C163.541 685.231 159.29 703.3 161.788 720.951C165.454 746.812 183.428 765.417 205.48 777.808C208.373 779.442 205.599 783.794 202.693 782.166C182.261 770.678 164.712 753.845 158.488 730.62C153.879 713.441 155.956 695.137 161.4 678.418C163.633 671.568 166.451 664.918 169.695 658.482C172.201 653.501 175.138 645.584 181.534 644.98C184.793 644.665 187.492 646.596 190.202 648.088C194.831 650.647 199.468 653.188 204.098 655.747C234.917 672.73 265.742 689.725 296.561 706.708C305.235 711.491 314.508 715.809 322.834 721.184C333.257 727.921 321.316 743.656 316.673 750.978C306.552 766.927 292.849 781.613 275.318 789.333C251.076 800.016 225.25 794.315 202.718 782.155C199.791 780.581 202.578 776.224 205.505 777.797L205.449 777.807Z" fill="#2E2D2B"/>
<path d="M159.152 834.724C166.153 822.024 180.16 796.606 187.167 783.889L207.141 794.894C200.14 807.594 186.133 833.011 179.126 845.729C179.126 845.729 173.227 850.23 165.576 846.02C158.9 842.345 159.152 834.724 159.152 834.724Z" fill="#5B5B5B"/>
<path d="M156.982 833.334C166.324 816.387 175.654 799.446 184.996 782.499C185.696 781.225 187.408 781.067 188.569 781.713C195.226 785.382 201.884 789.05 208.542 792.719C209.817 793.418 209.974 795.131 209.328 796.291C200.698 811.958 192.062 827.612 183.426 843.267C182.093 845.696 181.246 847.741 178.69 848.952C174.994 850.693 170.671 850.843 166.839 849.422C160.693 847.157 156.45 841.231 156.575 834.626C156.649 831.296 161.807 831.504 161.747 834.828C161.618 840.895 167.223 845.818 173.228 845.21C174.505 845.084 175.726 844.669 176.874 844.091C177.173 843.957 177.547 843.788 177.783 843.547C176.726 844.593 177.873 842.682 177.899 842.64C179.562 839.613 181.231 836.599 182.894 833.572C190.257 820.214 197.607 806.862 204.976 793.517L205.761 797.089C199.103 793.42 192.445 789.752 185.787 786.084L189.36 785.298C180.017 802.245 170.688 819.186 161.345 836.133C159.736 839.046 155.391 836.254 156.988 833.346L156.982 833.334Z" fill="#2E2D2B"/>
<path d="M137.693 873.702C73.6417 871.198 -54.478 866.184 -118.529 863.681L-117.647 840.895C-53.5958 843.399 74.5059 848.406 138.562 850.922C138.562 850.922 171.925 852.898 171.498 863.955C171.032 875.958 137.668 873.713 137.668 873.713L137.693 873.702Z" fill="#5B5B5B"/>
<path d="M137.582 876.284C68.9277 873.607 0.280021 870.912 -68.3745 868.235C-85.1215 867.584 -101.874 866.921 -118.621 866.27C-120.013 866.208 -121.162 864.987 -121.106 863.583C-120.811 855.988 -120.517 848.393 -120.223 840.798C-120.161 839.406 -118.941 838.257 -117.537 838.313C-61.3374 840.519 -5.13156 842.706 51.0675 844.911C77.7906 845.952 104.519 847.006 131.242 848.047C138.471 848.326 145.515 848.794 152.64 850.139C159.212 851.388 169.988 853.321 173.257 860.21C181.13 876.818 145.792 876.811 137.582 876.284C134.264 876.071 134.454 870.905 137.785 871.113C143.756 871.495 149.899 871.394 155.816 870.556C162.821 869.542 175.503 864.263 163.579 858.652C149.56 852.051 131.498 853.236 116.442 852.648C64.4556 850.612 12.487 848.584 -39.4996 846.548C-65.5816 845.533 -91.6693 844.505 -117.751 843.49C-116.85 842.664 -115.966 841.832 -115.065 841.006C-115.359 848.601 -115.653 856.196 -115.947 863.791C-116.773 862.89 -117.605 862.006 -118.431 861.104C-49.7767 863.781 18.871 866.477 87.5255 869.154C104.273 869.804 121.025 870.468 137.772 871.119C141.099 871.253 140.891 876.412 137.57 876.29L137.582 876.284Z" fill="#2E2D2B"/>
<path d="M151.743 890.914C136.184 886.581 125.923 868.532 130.171 852.951C134.443 837.255 152.656 826.86 168.348 831.254C184.047 835.599 194.273 853.903 189.826 869.543C185.408 885.08 167.314 895.241 151.743 890.914Z" fill="#5B5B5B"/>
<path d="M150.959 893.365C137.706 889.461 128.09 876.966 126.8 863.326C125.463 849.318 134.009 836.491 146.658 830.807C159.443 825.061 174.111 827.548 183.784 837.875C193.228 847.96 196.43 863.346 190.079 875.858C183.019 889.754 165.965 897.303 150.977 893.372C147.764 892.527 149.326 887.612 152.546 888.439C163.897 891.416 176.619 886.359 183.409 876.885C190.394 867.145 189.441 854.222 182.656 844.617C175.876 835.024 164.357 830.744 153.031 833.944C141.929 837.074 132.533 846.852 131.849 858.669C131.093 871.791 139.898 884.713 152.533 888.445C155.718 889.393 154.162 894.32 150.965 893.377L150.959 893.365Z" fill="#2E2D2B"/>
<path d="M157.619 874.224C150.629 872.279 146.015 864.168 147.918 857.152C149.835 850.099 158.035 845.415 165.085 847.394C172.142 849.354 176.745 857.574 174.744 864.605C172.75 871.588 164.616 876.152 157.626 874.206L157.619 874.224Z" fill="#757575"/>
<path d="M156.842 876.688C150.255 874.741 145.583 868.53 144.981 861.773C144.379 855.016 148.547 848.702 154.663 845.946C160.991 843.095 168.269 844.281 173.07 849.416C177.783 854.455 179.202 862.028 176.048 868.229C172.574 875.054 164.151 878.61 156.829 876.694C153.616 875.849 155.178 870.934 158.398 871.761C162.864 872.926 167.979 870.876 170.649 867.156C173.493 863.192 173.086 857.965 170.258 854.084C167.506 850.304 163.008 848.735 158.511 849.997C154.015 851.259 150.361 855.123 150.094 859.784C149.795 865.073 153.316 870.26 158.411 871.756C161.595 872.704 160.039 877.631 156.842 876.688Z" fill="#2E2D2B"/>
</g>
<g clip-path="url(#clip2_176_150)">
<path d="M197.926 29.1377C195.705 32.363 193.849 35.9254 191.827 39.2743C178.001 62.1728 154.26 77.6542 139.985 100.278C131.102 114.359 116.913 124.898 108.608 139.19C105.624 144.329 105.202 150.262 102.293 155.197C98.5224 161.6 91.1158 166.298 86.2036 171.853C80.0521 178.812 75.1255 187.854 76.5675 197.029C77.1729 200.917 78.8912 204.545 80.8681 207.944C88.126 220.392 99.8949 231.309 111.96 239.039C126.867 248.584 143.274 255.491 159.587 262.349C172.845 267.925 187.419 273.594 201.229 269.57C213.003 266.14 221.642 256.353 229.602 247.022C245.611 228.25 261.616 209.487 277.625 190.715C281.433 186.252 285.319 181.653 287.344 176.148C289.998 168.941 289.188 160.968 288.029 153.371C283.975 126.723 276.008 100.735 265.159 76.0682C257.18 57.9283 248.233 28.7237 228.594 20.4105C220.907 17.1565 211.5 17.1985 204.67 22C201.951 23.911 199.811 26.4001 197.926 29.1377Z" fill="#0169FF"/>
<path d="M203.436 154.375C206.534 157.434 209.028 160.722 210.81 164.517C212.378 167.849 213.921 171.197 214.258 174.942C214.711 179.946 212.992 184.215 209.423 187.567C202.741 193.854 194.736 195.228 185.995 193.224C184.669 192.921 183.379 192.489 182.075 192.101C180.892 191.752 180.037 191.983 179.18 193.021C176.979 195.694 175.352 198.748 173.373 201.56C172.913 202.209 172.491 202.936 171.889 203.432C170.593 204.506 169.109 204.493 167.749 203.574C166.555 202.768 166.063 200.539 166.908 199.185C168.68 196.313 170.566 193.498 172.535 190.76C174.169 188.493 174.261 188.535 171.793 187.038C170.054 185.987 168.316 184.92 166.519 183.983C165.669 183.538 164.931 183.311 164.021 184.491C161.323 187.997 157.533 190.543 155.189 194.436C154.51 195.559 152.943 196.076 151.502 195.41C150.062 194.744 149.378 193.607 149.64 191.929C150.062 189.277 151.821 187.423 153.47 185.541C154.605 184.246 156.049 183.239 157.284 182.027C159.297 180.054 158.639 179.49 156.961 178.6C151.588 175.75 146.923 171.69 141.098 169.548C138.426 168.566 138.078 165.945 139.803 163.981C140.778 162.868 141.926 163.147 143.051 163.426C145.861 164.126 148.475 165.298 150.937 166.82C152.638 167.87 153.775 167.815 154.896 166.18C157.781 161.952 161.544 158.465 164.663 154.432C167.994 150.127 172.203 146.625 175.927 142.669C176.683 141.87 176.764 141.356 176.445 140.411C175.712 138.273 177.481 135.817 179.673 136.222C181.674 136.584 182.836 135.968 184.122 134.545C188.213 130.022 192.628 125.805 196.152 120.776C197.111 119.401 196.605 118.956 195.488 118.19C193.402 116.772 190.954 115.997 189.024 114.281C187.676 113.09 187.674 111.726 188.319 110.454C189.049 109.02 190.478 108.441 192.115 108.917C194.57 109.629 196.654 111.125 198.865 112.327C200.544 113.24 202.04 114.437 204.063 114.576C204.521 114.61 205.129 114.839 205.481 115.365C206.766 117.302 208.86 118.173 210.766 119.26C212.608 120.319 213.676 119.899 215.684 117.729C217.865 115.37 219.656 112.729 221.321 109.998C222.471 108.113 224.105 107.61 225.833 108.55C227.424 109.412 228.181 111.817 227.146 113.435C225.004 116.792 222.909 120.207 219.85 122.86C219.047 123.555 218.974 124.211 219.836 124.828C221.49 126.019 223.175 127.167 224.855 128.325C225.614 128.851 226.23 128.311 226.677 127.873C229.096 125.493 231.447 123.055 233.042 119.997C234.055 118.057 236.058 117.253 237.662 118.026C239.367 118.845 240.031 120.962 239.063 123.023C237.715 125.903 235.741 128.344 233.484 130.563C232.818 131.214 232.079 131.793 231.458 132.481C230.756 133.26 230.64 134.17 231.413 134.974C233.09 136.731 234.558 138.644 235.881 140.681C238.405 144.556 239.236 148.795 238.555 153.316C238.009 156.934 235.262 158.549 232.23 159.735C227.183 161.715 222.295 160.246 217.467 158.792C213.045 157.461 208.505 156.465 204.33 154.389C204.085 154.267 203.735 154.376 203.429 154.377L203.436 154.375ZM200.932 185.491C202.598 185.213 203.232 184.153 204.037 183.426C206.435 181.254 208.294 178.549 207.551 175.189C206.397 169.975 204.206 165.2 200.379 161.267C195.169 155.909 189.468 151.137 183.43 146.752C182.596 146.148 181.812 146.184 181.083 146.912C178.408 149.566 175.716 152.218 173.158 154.958C168.561 159.887 164.449 165.269 160.053 170.384C159.073 171.522 159.151 172.052 160.416 172.761C165.403 175.565 170.367 178.409 175.311 181.283C177.377 182.487 179.349 183.848 181.886 183.908C182.699 183.929 183.434 184.411 183.886 185.121C184.332 185.811 185.005 186.031 185.707 186.264C191.044 188.069 196.27 187.778 200.925 185.494L200.932 185.491ZM231.321 145.972C229.326 142.587 227.046 139.479 224.321 136.938C220.463 133.331 216.479 129.672 211.13 128.2C210.848 128.123 210.54 127.918 210.374 127.682C208.981 125.663 206.735 124.773 204.8 123.489C203.728 122.784 202.829 122.879 202.003 124.081C198.6 129.003 194.524 133.345 190.307 137.578C188.253 139.644 188.838 139.875 190.921 140.758C191.604 141.044 192.258 141.394 192.924 141.717C201.897 146.079 210.852 150.493 220.631 152.833C223.599 153.542 226.559 154.599 229.674 153.611C230.844 153.237 232.037 152.563 232.076 151.329C232.134 149.498 231.779 147.647 231.312 145.968L231.321 145.972Z" fill="white"/>
</g>
<defs>
<clipPath id="clip0_176_150">
<rect width="384.02" height="635.215" fill="white" transform="translate(1506 -73)"/>
</clipPath>
<clipPath id="clip1_176_150">
<rect width="384.02" height="635.215" fill="white" transform="matrix(0.410808 0.911722 0.911722 -0.410808 -219 646.952)"/>
</clipPath>
<clipPath id="clip2_176_150">
<rect width="231.047" height="220.148" fill="white" transform="translate(239.889 8) rotate(69.2649)"/>
</clipPath>
</defs>
</svg>
