<svg width="288" height="295" viewBox="0 0 288 295" fill="none" xmlns="http://www.w3.org/2000/svg">
<g clip-path="url(#clip0_442_3886)">
<path d="M163.926 21.1377C161.705 24.363 159.849 27.9254 157.827 31.2743C144.001 54.1728 120.26 69.6542 105.985 92.278C97.1018 106.359 82.9133 116.898 74.6077 131.19C71.6236 136.329 71.2015 142.262 68.2931 147.197C64.5224 153.6 57.1158 158.298 52.2036 163.853C46.0521 170.812 41.1255 179.854 42.5675 189.029C43.1729 192.917 44.8912 196.545 46.8681 199.944C54.126 212.392 65.8949 223.309 77.9602 231.039C92.8669 240.584 109.274 247.491 125.587 254.349C138.845 259.925 153.419 265.594 167.229 261.57C179.003 258.14 187.642 248.353 195.602 239.022C211.611 220.25 227.616 201.487 243.625 182.715C247.433 178.252 251.319 173.653 253.344 168.148C255.998 160.941 255.188 152.968 254.029 145.371C249.975 118.723 242.008 92.7351 231.159 68.0682C223.18 49.9283 214.233 20.7237 194.594 12.4105C186.907 9.15649 177.5 9.19847 170.67 14C167.951 15.911 165.811 18.4001 163.926 21.1377Z" fill="#0169FF"/>
<path d="M169.436 146.375C172.534 149.434 175.028 152.722 176.81 156.517C178.378 159.849 179.921 163.197 180.258 166.942C180.711 171.946 178.992 176.215 175.423 179.567C168.741 185.854 160.736 187.228 151.995 185.224C150.669 184.921 149.379 184.489 148.075 184.101C146.892 183.752 146.037 183.983 145.18 185.021C142.979 187.694 141.352 190.748 139.373 193.56C138.913 194.209 138.491 194.936 137.889 195.432C136.593 196.506 135.109 196.493 133.749 195.574C132.555 194.768 132.063 192.539 132.908 191.185C134.68 188.313 136.566 185.498 138.535 182.76C140.169 180.493 140.261 180.535 137.793 179.038C136.054 177.987 134.316 176.92 132.519 175.983C131.669 175.538 130.931 175.311 130.021 176.491C127.323 179.997 123.533 182.543 121.189 186.436C120.51 187.559 118.943 188.076 117.502 187.41C116.062 186.744 115.378 185.607 115.64 183.929C116.062 181.277 117.821 179.423 119.47 177.541C120.605 176.246 122.049 175.239 123.284 174.027C125.297 172.054 124.639 171.49 122.961 170.6C117.588 167.75 112.923 163.69 107.098 161.548C104.426 160.566 104.078 157.945 105.803 155.981C106.778 154.868 107.926 155.147 109.051 155.426C111.861 156.126 114.475 157.298 116.937 158.82C118.638 159.87 119.775 159.815 120.896 158.18C123.781 153.952 127.544 150.465 130.663 146.432C133.994 142.127 138.203 138.625 141.927 134.669C142.683 133.87 142.764 133.356 142.445 132.411C141.712 130.273 143.481 127.817 145.673 128.222C147.674 128.584 148.836 127.968 150.122 126.545C154.213 122.022 158.628 117.805 162.152 112.776C163.111 111.401 162.605 110.956 161.488 110.19C159.402 108.772 156.954 107.997 155.024 106.281C153.676 105.09 153.674 103.726 154.319 102.454C155.049 101.02 156.478 100.441 158.115 100.917C160.57 101.629 162.654 103.125 164.865 104.327C166.544 105.24 168.04 106.437 170.063 106.576C170.521 106.61 171.129 106.839 171.481 107.365C172.766 109.302 174.86 110.173 176.766 111.26C178.608 112.319 179.676 111.899 181.684 109.729C183.865 107.37 185.656 104.729 187.321 101.998C188.471 100.113 190.105 99.6099 191.833 100.55C193.424 101.412 194.181 103.817 193.146 105.435C191.004 108.792 188.909 112.207 185.85 114.86C185.047 115.555 184.974 116.211 185.836 116.828C187.49 118.019 189.175 119.167 190.855 120.325C191.614 120.851 192.23 120.311 192.677 119.873C195.096 117.493 197.447 115.055 199.042 111.997C200.055 110.057 202.058 109.253 203.662 110.026C205.367 110.845 206.031 112.962 205.063 115.023C203.715 117.903 201.741 120.344 199.484 122.563C198.818 123.214 198.079 123.793 197.458 124.481C196.756 125.26 196.64 126.17 197.413 126.974C199.09 128.731 200.558 130.644 201.881 132.681C204.405 136.556 205.236 140.795 204.555 145.316C204.009 148.934 201.262 150.549 198.23 151.735C193.183 153.715 188.295 152.246 183.467 150.792C179.045 149.461 174.505 148.465 170.33 146.389C170.085 146.267 169.735 146.376 169.429 146.377L169.436 146.375ZM166.932 177.491C168.598 177.213 169.232 176.153 170.037 175.426C172.435 173.254 174.294 170.549 173.551 167.189C172.397 161.975 170.206 157.2 166.379 153.267C161.169 147.909 155.468 143.137 149.43 138.752C148.596 138.148 147.812 138.184 147.083 138.912C144.408 141.566 141.716 144.218 139.158 146.958C134.561 151.887 130.449 157.269 126.053 162.384C125.073 163.522 125.151 164.052 126.416 164.761C131.403 167.565 136.367 170.409 141.311 173.283C143.377 174.487 145.349 175.848 147.886 175.908C148.699 175.929 149.434 176.411 149.886 177.121C150.332 177.811 151.005 178.031 151.707 178.264C157.044 180.069 162.27 179.778 166.925 177.494L166.932 177.491ZM197.321 137.972C195.326 134.587 193.046 131.479 190.321 128.938C186.463 125.331 182.479 121.672 177.13 120.2C176.848 120.123 176.54 119.918 176.374 119.682C174.981 117.663 172.735 116.773 170.8 115.489C169.728 114.784 168.829 114.879 168.003 116.081C164.6 121.003 160.524 125.345 156.307 129.578C154.253 131.644 154.838 131.875 156.921 132.758C157.604 133.044 158.258 133.394 158.924 133.717C167.897 138.079 176.852 142.493 186.631 144.833C189.599 145.542 192.559 146.599 195.674 145.611C196.844 145.237 198.037 144.563 198.076 143.329C198.134 141.498 197.779 139.647 197.312 137.968L197.321 137.972Z" fill="white"/>
</g>
<defs>
<clipPath id="clip0_442_3886">
<rect width="231.047" height="220.148" fill="white" transform="translate(205.889) rotate(69.2649)"/>
</clipPath>
</defs>
</svg>
