<svg xmlns="http://www.w3.org/2000/svg" width="1891" height="998" viewBox="0 0 1891 998" fill="none">
<g clip-path="url(#clip0_176_150)">
<path d="M1646.78 463.519C1646.27 463.136 1645.77 462.754 1645.26 462.371C1613.58 438.599 1607.16 393.636 1630.94 361.953L1691.37 281.414C1715.14 249.731 1760.11 243.31 1791.79 267.096C1792.29 267.478 1792.8 267.861 1793.31 268.243C1824.99 292.016 1831.41 336.965 1807.64 368.661C1788.5 394.169 1766.3 423.762 1747.2 449.214C1723.42 480.897 1678.47 487.305 1646.79 463.519H1646.78Z" fill="#ADADAD"/>
<path d="M1648.18 461.347C1628.73 446.755 1617.43 423.939 1619.37 399.443C1620.61 383.745 1627.57 370.711 1636.8 358.415C1653.83 335.722 1670.85 313.042 1687.87 290.349C1696.19 279.269 1704.8 269.173 1717.51 262.751C1738.9 251.958 1765.12 253.065 1785.42 265.866C1806.02 278.859 1819.4 300.937 1819.4 325.543C1819.4 353.305 1801.26 372.828 1785.53 393.8C1775.03 407.79 1764.53 421.781 1754.03 435.784C1745.32 447.384 1737.18 458.737 1724.35 466.087C1700.22 479.914 1670.48 477.618 1648.18 461.36C1645.49 459.407 1642.66 463.724 1645.36 465.691C1665.17 480.132 1690.76 484.409 1714.04 476.402C1741.44 466.975 1755.87 441.932 1772.42 419.895C1782.63 406.287 1792.84 392.68 1803.06 379.058C1811.04 368.416 1818.46 358.169 1821.98 345.149C1828.16 322.264 1822.93 297.18 1807.95 278.763C1777.09 240.796 1718.76 241.493 1689.06 280.212C1671.15 303.561 1653.73 327.292 1636.08 350.832C1625.85 364.467 1616.92 377.911 1614.62 395.399C1610.97 422.969 1623.43 449.242 1645.37 465.705C1648.03 467.7 1650.85 463.369 1648.2 461.374L1648.18 461.347Z" fill="#2E2D2B"/>
<mask id="mask0_176_150" style="mask-type:luminance" maskUnits="userSpaceOnUse" x="1616" y="252" width="206" height="226">
<path d="M1646.78 463.519C1646.27 463.136 1645.77 462.754 1645.26 462.371C1613.58 438.599 1607.16 393.636 1630.94 361.953L1691.37 281.414C1715.14 249.731 1760.11 243.31 1791.79 267.096C1792.29 267.478 1792.8 267.861 1793.31 268.243C1824.99 292.016 1831.41 336.965 1807.64 368.661C1788.5 394.169 1766.3 423.761 1747.2 449.214C1723.42 480.897 1678.47 487.305 1646.79 463.519H1646.78Z" fill="white"/>
</mask>
<g mask="url(#mask0_176_150)">
<path d="M1565.37 470.609C1660.45 457.043 1755.53 443.49 1850.62 429.923C1853.93 429.459 1852.9 424.376 1849.62 424.854C1754.53 438.421 1659.46 451.974 1564.37 465.541C1561.06 466.005 1562.09 471.088 1565.37 470.609Z" fill="#2E2D2B"/>
<path d="M1551.28 442.356C1646.37 428.789 1741.44 415.236 1836.53 401.669C1839.84 401.205 1838.82 396.123 1835.54 396.601C1740.45 410.167 1645.37 423.72 1550.28 437.287C1546.98 437.752 1548 442.834 1551.28 442.356Z" fill="#2E2D2B"/>
<path d="M1537.19 414.102C1632.28 400.535 1727.36 386.982 1822.45 373.416C1825.76 372.951 1824.73 367.869 1821.45 368.347C1726.36 381.914 1631.29 395.467 1536.2 409.033C1532.89 409.498 1533.91 414.58 1537.19 414.102Z" fill="#2E2D2B"/>
<path d="M1523.11 385.849C1618.2 372.282 1713.27 358.729 1808.36 345.162C1811.67 344.698 1810.64 339.615 1807.37 340.093C1712.28 353.66 1617.2 367.213 1522.11 380.78C1518.8 381.244 1519.83 386.327 1523.11 385.849Z" fill="#2E2D2B"/>
<path d="M1509.02 357.595C1604.11 344.028 1699.19 330.475 1794.28 316.909C1797.58 316.444 1796.56 311.362 1793.28 311.84C1698.19 325.406 1603.11 338.959 1508.02 352.526C1504.72 352.991 1505.74 358.073 1509.02 357.595Z" fill="#2E2D2B"/>
<path d="M1617.46 274.938C1631.03 370.027 1644.58 465.103 1658.15 560.193C1658.61 563.499 1663.69 562.475 1663.21 559.196C1649.65 464.106 1636.09 369.03 1622.53 273.94C1622.06 270.634 1616.98 271.659 1617.46 274.938Z" fill="#2E2D2B"/>
<path d="M1645.71 260.852C1659.28 355.942 1672.83 451.018 1686.4 546.107C1686.86 549.414 1691.95 548.389 1691.47 545.11C1677.9 450.02 1664.35 354.944 1650.78 259.855C1650.32 256.548 1645.24 257.573 1645.71 260.852Z" fill="#2E2D2B"/>
<path d="M1673.97 246.766C1687.53 341.856 1701.09 436.932 1714.65 532.021C1715.12 535.328 1720.2 534.303 1719.72 531.024C1706.16 435.934 1692.6 340.858 1679.04 245.769C1678.57 242.463 1673.49 243.487 1673.97 246.766Z" fill="#2E2D2B"/>
<path d="M1702.22 232.68C1715.79 327.77 1729.34 422.846 1742.91 517.936C1743.37 521.242 1748.45 520.217 1747.98 516.938C1734.41 421.849 1720.86 326.773 1707.29 231.683C1706.83 228.377 1701.74 229.401 1702.22 232.68Z" fill="#2E2D2B"/>
<path d="M1730.48 218.595C1744.04 313.684 1757.59 408.76 1771.16 503.85C1771.63 507.156 1776.71 506.131 1776.23 502.852C1762.66 407.763 1749.11 312.687 1735.54 217.597C1735.08 214.291 1730 215.316 1730.48 218.595Z" fill="#2E2D2B"/>
<path d="M1664.28 295.923C1684.02 310.733 1779.96 382.72 1799.7 397.53C1799.7 397.53 1867 315.16 1796.65 262.382C1726.31 209.591 1664.28 295.923 1664.28 295.923Z" fill="#757575"/>
<path d="M1662.86 298.082C1708 331.951 1753.14 365.82 1798.28 399.688C1799.48 400.59 1801.03 399.962 1801.86 398.937C1823.46 372.391 1838.93 332.388 1827.44 298.683C1818.23 271.7 1791.71 249.963 1764.02 244.225C1739.87 239.238 1716.05 247.572 1696.35 261.371C1683.49 270.375 1671.34 281.701 1662.12 294.489C1660.17 297.18 1664.5 300.022 1666.45 297.317C1685.57 270.826 1718.52 246.329 1752.4 247.927C1780.56 249.253 1808.92 269.172 1820.41 294.817C1829.81 315.829 1826.48 339.533 1818.15 360.286C1813.06 372.924 1806.18 385.493 1797.54 396.095L1801.12 395.344C1755.98 361.475 1710.84 327.606 1665.7 293.737C1663.04 291.743 1660.22 296.073 1662.87 298.068L1662.86 298.082Z" fill="#2E2D2B"/>
<path d="M1767.6 303.014C1763.69 298.328 1755.9 297.604 1751.19 301.47C1746.45 305.377 1745.69 313.247 1749.64 317.974C1753.58 322.701 1761.45 323.384 1766.15 319.422C1770.81 315.488 1771.5 307.686 1767.6 303.014Z" fill="#5B5B5B"/>
<path d="M1769.52 301.279C1765.63 296.757 1759.07 295.322 1753.52 297.262C1748.02 299.175 1744.52 304.708 1744.52 310.474C1744.52 316.485 1748.03 321.813 1753.8 323.781C1759.47 325.721 1765.91 324.109 1769.7 319.409C1773.85 314.258 1773.61 306.361 1769.51 301.279C1768.63 300.2 1766.86 300.186 1765.86 301.088C1764.78 302.058 1764.78 303.642 1765.67 304.735C1767.9 307.482 1768.2 311.976 1766.32 315.187C1764.34 318.603 1760.52 320.051 1756.56 319.204C1752.89 318.425 1750.31 315.652 1749.77 311.963C1749.22 308.274 1750.91 304.271 1754.12 302.59C1757.85 300.65 1762.85 301.47 1765.66 304.722C1767.83 307.236 1771.68 303.793 1769.51 301.265L1769.52 301.279Z" fill="#2E2D2B"/>
</g>
<path d="M1648.18 461.347C1628.73 446.755 1617.43 423.939 1619.37 399.443C1620.61 383.745 1627.57 370.711 1636.8 358.415C1653.83 335.722 1670.85 313.042 1687.87 290.349C1696.19 279.269 1704.8 269.173 1717.51 262.751C1738.9 251.958 1765.12 253.065 1785.42 265.866C1806.02 278.859 1819.4 300.937 1819.4 325.543C1819.4 353.305 1801.26 372.828 1785.53 393.8C1775.03 407.79 1764.53 421.78 1754.03 435.784C1745.32 447.384 1737.18 458.737 1724.35 466.087C1700.22 479.914 1670.48 477.618 1648.18 461.36C1645.49 459.406 1642.66 463.724 1645.36 465.691C1665.17 480.132 1690.76 484.409 1714.04 476.402C1741.44 466.975 1755.87 441.932 1772.42 419.895C1782.63 406.287 1792.84 392.68 1803.06 379.058C1811.04 368.416 1818.46 358.169 1821.98 345.149C1828.16 322.264 1822.93 297.18 1807.95 278.763C1777.09 240.796 1718.76 241.493 1689.06 280.212C1671.15 303.561 1653.73 327.292 1636.08 350.832C1625.85 364.467 1616.92 377.911 1614.62 395.399C1610.97 422.969 1623.43 449.242 1645.37 465.705C1648.03 467.699 1650.85 463.369 1648.2 461.374L1648.18 461.347Z" fill="#2E2D2B"/>
<path d="M1651.95 296.251L1803 409.594C1805.37 411.37 1808.87 410.864 1811.08 408.405C1828.59 388.882 1894.3 306.197 1812.12 244.539C1730.31 183.155 1666.08 265.784 1651.03 287.876C1649.09 290.732 1649.48 294.407 1651.94 296.251H1651.95ZM1801.09 258.065C1868.49 308.629 1821.07 370.834 1806.24 387.474C1804.03 389.947 1800.53 390.453 1798.15 388.677L1672.98 294.762C1670.49 292.89 1670.13 289.174 1672.11 286.319C1685.09 267.615 1734.09 207.815 1801.08 258.079L1801.09 258.065Z" fill="#5B5B5B"/>
<path d="M1650.53 298.41C1676.1 317.592 1701.65 336.76 1727.21 355.942C1744.27 368.743 1761.35 381.559 1778.41 394.36C1784.1 398.623 1789.78 402.886 1795.46 407.162C1797.84 408.952 1800.31 411.411 1803.12 412.545C1810.53 415.578 1815.82 407.012 1819.78 402.079C1825.33 395.18 1830.45 387.912 1835.02 380.329C1846.26 361.653 1854.74 340.38 1855.09 318.33C1855.5 291.975 1843.13 268.407 1823.85 250.906C1802.58 231.588 1774.98 217.775 1745.67 219.947C1720.18 221.833 1697.16 235.235 1678.6 252.122C1670.82 259.185 1663.7 266.959 1657.17 275.184C1652.34 281.264 1642.91 290.445 1650 297.986C1652.27 300.405 1656.14 296.962 1653.85 294.53C1649.52 289.912 1661.31 278.176 1663.99 274.938C1669.84 267.875 1676.19 261.221 1683.01 255.1C1698.9 240.864 1717.94 229.306 1739.27 225.877C1767.42 221.354 1794.38 233.036 1815.79 250.728C1836.21 267.588 1850.33 290.964 1849.92 317.988C1849.59 338.973 1841.64 359.166 1831 376.982C1826.81 383.991 1822.16 390.726 1817.12 397.147C1814.35 400.686 1809.43 409.32 1803.99 407.135C1801.3 406.055 1798.48 402.995 1796.19 401.287L1779.49 388.759C1763.77 376.955 1748.03 365.15 1732.3 353.346C1705.99 333.59 1679.66 313.848 1653.35 294.093C1650.68 292.098 1647.87 296.429 1650.52 298.424L1650.53 298.41Z" fill="#2E2D2B"/>
<path d="M1799.67 260.224C1817.64 273.941 1832.35 292.603 1833.64 315.966C1834.54 332.47 1828.95 348.715 1820.82 362.882C1817.56 368.566 1807.23 388.813 1799.08 386.163C1796.83 385.425 1794.19 382.488 1792.32 381.08C1787.94 377.788 1783.55 374.495 1779.15 371.203C1753.67 352.075 1728.19 332.962 1702.7 313.835C1694.25 307.495 1685.8 301.156 1677.35 294.817C1674.03 292.316 1672.91 290.745 1675.44 286.086C1677.97 281.428 1682.48 276.905 1686.11 272.984C1698.05 260.046 1712.78 248.747 1729.9 243.774C1754.98 236.492 1779.33 245.236 1799.69 260.251C1802.36 262.218 1805.19 257.901 1802.51 255.92C1783.65 242.012 1761.09 232.926 1737.36 236.793C1719.8 239.648 1703.97 249.062 1690.96 260.893C1685.63 265.743 1680.73 271.044 1676.19 276.646C1672.68 280.977 1666.67 286.906 1668.75 292.986C1669.8 296.087 1672.67 297.754 1675.14 299.612C1679.38 302.782 1683.6 305.965 1687.83 309.135C1715.98 330.257 1744.13 351.379 1772.28 372.501C1780.2 378.444 1787.95 385.125 1796.27 390.508C1806.69 397.243 1816.14 379.892 1820.9 372.651C1831.29 356.871 1839.05 338.345 1838.88 319.19C1838.66 292.699 1822.86 271.495 1802.51 255.947C1799.88 253.925 1797.05 258.256 1799.69 260.278L1799.67 260.224Z" fill="#2E2D2B"/>
<path d="M1832.54 194.631C1823.84 206.23 1806.42 229.442 1797.71 241.055L1815.94 254.745C1824.65 243.146 1842.07 219.934 1850.78 208.321C1850.78 208.321 1852.46 201.093 1845.48 195.847C1839.39 191.27 1832.54 194.631 1832.54 194.631Z" fill="#5B5B5B"/>
<path d="M1830.39 193.224C1818.77 208.703 1807.16 224.169 1795.55 239.648C1794.67 240.81 1795.23 242.435 1796.3 243.228C1802.38 247.791 1808.46 252.354 1814.54 256.917C1815.7 257.792 1817.32 257.232 1818.12 256.166C1828.85 241.862 1839.58 227.557 1850.3 213.253C1851.97 211.039 1853.49 209.427 1853.54 206.599C1853.61 202.514 1851.97 198.511 1849.1 195.601C1844.51 190.928 1837.37 189.494 1831.4 192.322C1828.39 193.757 1830.7 198.374 1833.7 196.954C1839.18 194.344 1845.97 197.432 1847.89 203.156C1848.3 204.372 1848.42 205.656 1848.36 206.941C1848.36 207.269 1848.36 207.678 1848.24 207.993C1848.76 206.599 1847.49 208.43 1847.46 208.471C1845.39 211.231 1843.32 213.99 1841.25 216.75C1832.09 228.951 1822.94 241.137 1813.8 253.338L1817.38 252.586C1811.3 248.023 1805.22 243.46 1799.14 238.897L1799.89 242.476C1811.5 226.997 1823.12 211.531 1834.73 196.052C1836.72 193.388 1832.39 190.573 1830.4 193.224H1830.39Z" fill="#2E2D2B"/>
<path d="M1859.27 159.054C1830.67 101.686 1773.47 -13.0633 1744.87 -70.4314L1724.46 -60.2666C1753.06 -2.89856 1810.25 111.838 1838.86 169.206C1838.86 169.206 1854.36 198.812 1864.27 193.88C1875.02 188.524 1859.27 159.027 1859.27 159.027V159.054Z" fill="#5B5B5B"/>
<path d="M1861.58 157.893C1830.93 96.3991 1800.27 34.9187 1769.63 -26.5754C1762.16 -41.5766 1754.67 -56.5778 1747.2 -71.579C1746.57 -72.8223 1744.98 -73.3688 1743.73 -72.7403C1736.92 -69.3521 1730.12 -65.9638 1723.31 -62.5756C1722.07 -61.9471 1721.52 -60.3623 1722.15 -59.1053C1747.25 -8.77339 1772.33 41.5722 1797.43 91.9042C1809.36 115.841 1821.3 139.777 1833.23 163.713C1836.45 170.189 1839.77 176.419 1843.92 182.362C1847.76 187.841 1853.95 196.872 1861.58 197.022C1879.95 197.377 1865.43 165.161 1861.58 157.893C1860.02 154.956 1855.39 157.251 1856.95 160.202C1859.75 165.489 1862.18 171.132 1863.84 176.87C1865.8 183.674 1866.19 197.404 1856.18 188.838C1844.4 178.769 1838.06 161.814 1831.34 148.329C1808.13 101.768 1784.93 55.2209 1761.72 8.65971C1750.08 -14.7028 1738.42 -38.0654 1726.78 -61.4279C1726.4 -60.2666 1726.01 -59.119 1725.62 -57.9577C1732.43 -61.346 1739.23 -64.7342 1746.03 -68.1225C1744.87 -68.505 1743.73 -68.9012 1742.56 -69.2838C1773.21 -7.78971 1803.87 53.6907 1834.51 115.185C1841.98 130.186 1849.47 145.187 1856.95 160.188C1858.43 163.167 1863.05 160.858 1861.58 157.879V157.893Z" fill="#2E2D2B"/>
<path d="M1880.73 164.792C1870.39 152.387 1849.72 150.447 1837.26 160.721C1824.7 171.063 1822.71 191.94 1833.16 204.441C1843.57 216.969 1864.46 218.772 1876.89 208.293C1889.24 197.883 1891.07 177.212 1880.73 164.792Z" fill="#5B5B5B"/>
<path d="M1882.64 163.071C1873.64 152.592 1858.3 148.958 1845.33 153.384C1832.01 157.92 1823.83 170.982 1823.84 184.849C1823.85 198.866 1832.15 211.217 1845.54 215.794C1858.61 220.261 1873.95 216.86 1882.75 205.93C1892.52 193.784 1892.4 175.135 1882.66 163.085C1880.57 160.503 1876.73 163.945 1878.8 166.541C1886.18 175.668 1886.8 189.344 1880.95 199.426C1874.94 209.796 1862.76 214.236 1851.22 211.996C1839.69 209.755 1831.05 201.011 1829.32 189.371C1827.61 177.963 1832.67 165.38 1843.16 159.901C1854.81 153.822 1870.21 156.54 1878.8 166.528C1880.98 169.042 1884.83 165.599 1882.66 163.071H1882.64Z" fill="#2E2D2B"/>
<path d="M1867.93 177.007C1863.28 171.432 1853.99 170.558 1848.38 175.176C1842.73 179.821 1841.83 189.221 1846.53 194.836C1851.22 200.465 1860.6 201.285 1866.19 196.571C1871.74 191.885 1872.56 182.595 1867.91 177.02L1867.93 177.007Z" fill="#757575"/>
<path d="M1869.85 175.285C1865.37 170.08 1857.79 168.372 1851.38 170.599C1844.98 172.826 1840.93 179.22 1840.93 185.928C1840.93 192.869 1845 199.017 1851.66 201.285C1858.19 203.512 1865.67 201.694 1870.03 196.271C1874.83 190.3 1874.61 181.16 1869.85 175.272C1867.76 172.689 1863.93 176.132 1866 178.728C1868.9 182.321 1869.13 187.827 1866.84 191.789C1864.39 196.011 1859.46 197.787 1854.76 196.803C1850.18 195.847 1846.9 192.39 1846.21 187.773C1845.51 183.155 1847.53 178.236 1851.67 176.078C1856.37 173.632 1862.55 174.711 1866 178.742C1868.17 181.256 1872.03 177.813 1869.85 175.285Z" fill="#2E2D2B"/>
</g>
<path d="M1653 785.16C1652.52 784.728 1652.03 784.312 1651.55 783.875C1647.74 780.411 1644.37 776.62 1641.49 772.293C1638.64 768.018 1636.63 763.49 1635.9 758.471C1635.02 752.426 1636.05 746.709 1639.39 741.388C1642.15 736.983 1645.71 733.452 1650.03 730.753C1657.02 726.395 1664.72 724.096 1672.95 723.51C1678.48 723.114 1683.99 723.366 1689.32 724.688C1693.52 725.724 1697.54 727.533 1701.6 729.105C1704.05 730.048 1706.53 730.985 1708.79 732.29C1711.96 734.115 1714.95 736.265 1718 738.295C1725.33 743.169 1731.02 749.54 1735.09 757.31C1737.7 762.31 1739.29 767.681 1738.86 773.348C1738.57 777.239 1738.05 781.244 1736.81 784.911C1735.15 789.821 1732.06 794.064 1728.9 798.213C1725.18 803.088 1720.7 807.001 1715.25 809.668C1710.06 812.208 1704.54 813.567 1698.68 813.901C1689.96 814.394 1681.65 812.505 1673.43 810.168C1669.16 808.952 1665.07 807.067 1660.97 805.287C1656.72 803.433 1652.46 801.561 1648.42 799.292C1642.62 796.042 1637.02 792.439 1631.35 788.964C1630.21 788.265 1629.05 787.525 1628.06 786.635C1626.42 785.156 1626.11 783.577 1627 782.279C1628.34 780.321 1629.73 780.084 1631.97 780.788C1634.94 781.723 1638 782.372 1641.03 783.091C1644.91 784.01 1648.81 784.865 1652.7 785.749C1652.8 785.554 1652.9 785.353 1652.99 785.158L1653 785.16ZM1649.04 791.833C1649.05 791.976 1649.05 792.119 1649.07 792.263C1650.58 793.018 1652.13 793.714 1653.61 794.535C1658.86 797.437 1664.28 799.951 1669.96 801.869C1673.67 803.122 1677.33 804.618 1681.14 805.475C1685.19 806.387 1689.37 806.754 1693.51 807.203C1698.04 807.7 1702.54 807.177 1706.89 806C1714.2 804.022 1719.72 799.377 1724.35 793.553C1728.41 788.455 1731.23 782.785 1731.99 776.291C1732.31 773.601 1732.27 770.791 1731.87 768.11C1731.01 762.352 1728.14 757.526 1724.49 753.023C1720.9 748.593 1716.68 744.804 1711.94 741.863C1706.55 738.501 1700.73 735.656 1694.79 733.368C1689.2 731.209 1683.19 729.905 1677.12 730.033C1670.88 730.163 1664.7 730.984 1658.9 733.602C1653 736.265 1647.71 739.618 1644.62 745.631C1642.01 750.72 1641.41 755.981 1643.23 761.436C1644.67 765.734 1647.17 769.409 1650.06 772.865C1655.45 779.323 1662.06 784.283 1669.12 788.73C1671.19 790.037 1673.31 791.25 1675.35 792.601C1675.78 792.887 1675.96 793.576 1676.24 794.082C1675.77 794.281 1675.3 794.666 1674.84 794.637C1671.54 794.433 1668.24 794.273 1664.97 793.844C1660.21 793.212 1655.5 792.343 1650.76 791.624C1650.22 791.539 1649.62 791.755 1649.05 791.834L1649.04 791.833Z" fill="white"/>

<defs>
<clipPath id="clip0_176_150">
<rect width="384.02" height="635.215" fill="white" transform="translate(1506 -73)"/>
</clipPath>
<clipPath id="clip1_176_150">
<rect width="384.02" height="635.215" fill="white" transform="matrix(0.410808 0.911722 0.911722 -0.410808 -219 646.952)"/>
</clipPath>
<clipPath id="clip2_176_150">
<rect width="231.047" height="220.148" fill="white" transform="translate(239.889 8) rotate(69.2649)"/>
</clipPath>
</defs>
</svg>