<svg width="518" height="612" viewBox="0 0 518 612" fill="none" xmlns="http://www.w3.org/2000/svg">
<g clip-path="url(#clip0_442_3837)">
<path d="M327.988 168.895C327.432 168.591 326.875 168.287 326.319 167.984C291.63 148.864 247.998 161.48 228.884 196.182L180.279 284.362C161.159 319.052 173.775 362.683 208.477 381.797C209.034 382.101 209.59 382.405 210.147 382.709C244.836 401.829 288.455 389.218 307.587 354.523C322.98 326.593 340.84 294.195 356.199 266.324C375.319 231.635 362.696 188.022 327.994 168.907L327.988 168.895Z" fill="#ADADAD"/>
<path d="M326.585 171.07C305.29 159.327 279.846 158.398 258.309 170.23C244.508 177.813 235.481 189.507 228.065 202.979C214.368 227.822 200.684 252.66 186.988 277.502C180.304 289.64 174.635 301.635 174 315.857C172.949 339.798 184.728 363.247 204.74 376.498C225.05 389.944 250.674 393.069 273.107 382.96C298.418 371.556 308.765 346.993 321.425 324.041C329.864 308.715 338.309 293.401 346.76 278.069C353.761 265.37 360.767 253.282 362.198 238.566C364.892 210.888 350.58 184.714 326.598 171.064C323.711 169.413 326.485 165.061 329.385 166.707C350.689 178.836 365.1 200.409 367.365 224.924C370.029 253.784 353.123 277.225 339.828 301.363C331.62 316.27 323.406 331.165 315.186 346.078C308.76 357.725 302.466 368.698 292.043 377.261C273.716 392.292 248.696 397.826 225.754 391.74C178.459 379.198 155.134 325.737 178.234 282.751C192.163 256.829 206.644 231.198 220.854 205.434C229.082 190.503 237.673 176.846 252.669 167.557C276.307 152.905 305.379 153.472 329.403 166.714C332.316 168.323 329.523 172.668 326.616 171.071L326.585 171.07Z" fill="#2E2D2B"/>
<mask id="mask0_442_3837" style="mask-type:luminance" maskUnits="userSpaceOnUse" x="171" y="159" width="195" height="233">
<path d="M327.988 168.895C327.432 168.591 326.875 168.287 326.319 167.983C291.63 148.863 247.998 161.48 228.884 196.182L180.279 284.362C161.159 319.051 173.775 362.683 208.477 381.797C209.034 382.101 209.59 382.405 210.147 382.708C244.836 401.828 288.455 389.217 307.587 354.522C322.98 326.593 340.84 294.194 356.199 266.324C375.319 231.635 362.696 188.022 327.994 168.907L327.988 168.895Z" fill="white"/>
</mask>
<g mask="url(#mask0_442_3837)">
<path d="M301.009 91.7566C327.704 184.025 354.405 276.276 381.1 368.544C382.035 371.75 376.98 372.903 376.069 369.717C349.374 277.449 322.673 185.198 295.978 92.9296C295.043 89.7244 300.098 88.5707 301.009 91.7566Z" fill="#2E2D2B"/>
<path d="M269.464 90.5205C296.159 182.789 322.86 275.04 349.555 367.308C350.49 370.514 345.435 371.667 344.524 368.481C317.829 276.213 291.128 183.962 264.433 91.6935C263.499 88.4883 268.553 87.3346 269.464 90.5205Z" fill="#2E2D2B"/>
<path d="M237.917 89.285C264.612 181.554 291.313 273.804 318.008 366.073C318.943 369.278 313.888 370.432 312.977 367.246C286.282 274.977 259.581 182.727 232.886 90.458C231.952 87.2527 237.006 86.0991 237.917 89.285Z" fill="#2E2D2B"/>
<path d="M206.372 88.0495C233.067 180.318 259.769 272.569 286.463 364.837C287.398 368.043 282.343 369.196 281.432 366.01C254.738 273.742 228.036 181.491 201.341 89.2225C200.407 86.0172 205.461 84.8636 206.372 88.0495Z" fill="#2E2D2B"/>
<path d="M174.826 86.814C201.52 179.083 228.222 271.333 254.916 363.602C255.851 366.807 250.796 367.961 249.885 364.775C223.191 272.506 196.489 180.256 169.795 87.987C168.86 84.7817 173.915 83.6281 174.826 86.814Z" fill="#2E2D2B"/>
<path d="M144.012 219.635C236.28 192.941 328.531 166.239 420.799 139.545C424.005 138.61 425.158 143.665 421.972 144.576C329.704 171.27 237.453 197.972 145.185 224.666C141.979 225.601 140.826 220.546 144.012 219.635Z" fill="#2E2D2B"/>
<path d="M142.777 251.182C235.046 224.487 327.296 197.786 419.565 171.091C422.77 170.156 423.924 175.211 420.738 176.122C328.469 202.817 236.219 229.518 143.95 256.213C140.745 257.147 139.591 252.093 142.777 251.182Z" fill="#2E2D2B"/>
<path d="M141.541 282.727C233.81 256.033 326.06 229.331 418.329 202.637C421.534 201.702 422.688 206.757 419.502 207.668C327.233 234.362 234.982 261.064 142.714 287.758C139.509 288.693 138.355 283.639 141.541 282.727Z" fill="#2E2D2B"/>
<path d="M140.305 314.274C232.573 287.579 324.824 260.878 417.092 234.183C420.298 233.248 421.451 238.303 418.265 239.214C325.997 265.909 233.746 292.61 141.478 319.305C138.272 320.24 137.119 315.185 140.305 314.274Z" fill="#2E2D2B"/>
<path d="M139.07 345.82C231.339 319.125 323.589 292.424 415.858 265.729C419.063 264.794 420.217 269.849 417.031 270.76C324.762 297.455 232.512 324.156 140.243 350.851C137.038 351.785 135.884 346.731 139.07 345.82Z" fill="#2E2D2B"/>
<path d="M182.378 253.701C203.991 265.616 309.035 323.511 330.647 335.426C330.647 335.426 283.196 430.624 206.179 388.168C129.149 345.718 182.378 253.701 182.378 253.701Z" fill="#757575"/>
<path d="M183.763 251.519C233.186 278.761 282.609 306.003 332.032 333.244C333.348 333.97 333.409 335.636 332.817 336.817C317.488 367.415 287.37 397.949 251.92 401.32C223.536 404.009 192.824 388.761 176.216 365.87C161.752 345.908 159.562 320.761 164.049 297.13C166.977 281.71 172.313 265.984 180.184 252.323C181.835 249.436 186.205 252.217 184.541 255.109C168.241 283.418 159.444 323.526 174.821 353.761C187.597 378.889 217.41 396.565 245.51 396.506C268.529 396.443 288.771 383.666 304.269 367.542C313.703 357.717 322.334 346.275 328.453 334.048L329.238 337.62C279.815 310.378 230.392 283.136 180.969 255.895C178.056 254.285 180.849 249.94 183.756 251.537L183.763 251.519Z" fill="#2E2D2B"/>
<path d="M231.286 344.983C225.409 343.345 221.549 336.543 223.138 330.657C224.753 324.73 231.619 320.812 237.551 322.469C243.477 324.115 247.333 331.009 245.651 336.922C243.978 342.786 237.152 346.626 231.286 344.983Z" fill="#5B5B5B"/>
<path d="M230.495 347.451C224.773 345.759 220.771 340.37 220.261 334.515C219.743 328.71 223.351 323.248 228.607 320.879C234.088 318.41 240.388 319.422 244.55 323.87C248.648 328.243 249.828 334.784 247.097 340.166C244.108 346.068 236.807 349.088 230.49 347.439C229.146 347.085 228.404 345.472 228.817 344.192C229.258 342.809 230.702 342.158 232.064 342.519C235.482 343.421 239.704 341.849 241.862 338.823C244.162 335.614 243.911 331.531 241.511 328.267C239.297 325.248 235.708 324.034 232.12 325.051C228.532 326.068 225.579 329.257 225.366 332.875C225.129 337.072 227.931 341.294 232.046 342.512C235.23 343.46 233.674 348.387 230.477 347.445L230.495 347.451Z" fill="#2E2D2B"/>
</g>
<path d="M326.585 171.07C305.29 159.326 279.846 158.398 258.309 170.23C244.508 177.813 235.481 189.507 228.065 202.979C214.368 227.822 200.684 252.659 186.988 277.502C180.304 289.64 174.635 301.635 174 315.857C172.949 339.798 184.728 363.246 204.74 376.497C225.05 389.944 250.674 393.068 273.107 382.96C298.418 371.555 308.765 346.993 321.425 324.041C329.864 308.715 338.309 293.401 346.76 278.069C353.761 265.369 360.767 253.282 362.198 238.566C364.892 210.888 350.58 184.714 326.598 171.064C323.711 169.413 326.485 165.061 329.385 166.706C350.689 178.835 365.1 200.409 367.365 224.924C370.029 253.783 353.123 277.225 339.828 301.363C331.62 316.27 323.406 331.165 315.186 346.078C308.76 357.725 302.466 368.698 292.043 377.26C273.716 392.292 248.696 397.826 225.754 391.739C178.459 379.198 155.134 325.736 178.234 282.75C192.163 256.828 206.644 231.198 220.854 205.434C229.082 190.503 237.673 176.846 252.669 167.557C276.307 152.905 305.379 153.472 329.403 166.713C332.316 168.323 329.523 172.668 326.616 171.071L326.585 171.07Z" fill="#2E2D2B"/>
<path d="M177.613 242.33L343.002 333.484C345.593 334.91 346.569 338.306 345.236 341.334C334.631 365.324 286.237 459.193 196.262 409.598C106.688 360.228 155.639 267.726 169.595 244.924C171.402 241.982 174.915 240.834 177.607 242.318L177.613 242.33ZM204.065 393.99C277.852 434.664 315.084 365.874 324.166 345.523C325.511 342.489 324.535 339.093 321.939 337.655L184.893 262.112C182.165 260.614 178.625 261.804 176.836 264.784C165.115 284.301 130.726 353.547 204.071 393.972L204.065 393.99Z" fill="#5B5B5B"/>
<path d="M178.997 240.148C206.986 255.574 234.958 270.992 262.948 286.418C281.629 296.717 300.329 307.022 319.011 317.321C325.232 320.752 331.453 324.182 337.687 327.607C340.295 329.04 343.553 330.284 345.737 332.372C351.55 337.889 345.912 346.229 343.043 351.867C339.032 359.759 334.51 367.416 329.471 374.691C317.063 392.615 301.154 409.089 281.19 418.459C257.33 429.66 230.764 428.069 206.888 417.683C180.536 406.225 156.605 386.737 146.541 359.114C137.793 335.108 140.555 308.614 148.323 284.749C151.57 274.759 155.733 265.076 160.549 255.743C164.105 248.836 168.603 236.47 178.392 239.836C181.528 240.911 179.978 245.85 176.823 244.769C170.834 242.717 164.977 258.288 163.125 262.06C159.088 270.293 155.631 278.818 152.852 287.548C146.4 307.883 143.686 329.996 149.32 350.848C156.759 378.366 178.489 398.156 203.414 410.406C227.171 422.09 254.287 425.367 278.757 413.891C297.755 404.971 312.898 389.426 324.769 372.404C329.436 365.701 333.669 358.699 337.452 351.465C339.539 347.482 345.391 339.451 341.164 335.391C339.074 333.381 335.128 332.072 332.628 330.681L314.347 320.606C297.125 311.118 279.897 301.618 262.675 292.13C233.853 276.255 205.038 260.362 176.217 244.488C173.304 242.878 176.096 238.533 179.004 240.13L178.997 240.148Z" fill="#2E2D2B"/>
<path d="M205.449 391.807C225.336 402.552 248.396 408.301 270.223 399.874C285.641 393.916 298.156 382.148 307.733 368.916C311.574 363.604 325.791 345.87 320.029 339.535C318.431 337.782 314.669 336.585 312.617 335.457C307.814 332.811 303.01 330.165 298.201 327.507C270.295 312.134 242.401 296.755 214.489 281.369C205.241 276.275 195.987 271.169 186.739 266.076C183.095 264.076 181.203 263.7 177.993 267.918C174.784 272.136 172.513 278.105 170.431 283.029C163.541 299.231 159.29 317.3 161.788 334.951C165.454 360.812 183.428 379.417 205.48 391.808C208.373 393.442 205.599 397.794 202.693 396.166C182.261 384.678 164.712 367.845 158.488 344.62C153.879 327.441 155.956 309.137 161.4 292.418C163.633 285.568 166.451 278.918 169.695 272.482C172.201 267.501 175.138 259.584 181.534 258.98C184.793 258.665 187.492 260.596 190.202 262.088C194.831 264.647 199.468 267.188 204.098 269.747C234.917 286.73 265.742 303.725 296.561 320.708C305.235 325.491 314.508 329.809 322.834 335.184C333.257 341.921 321.316 357.656 316.673 364.978C306.552 380.927 292.849 395.613 275.318 403.333C251.076 414.016 225.25 408.315 202.718 396.155C199.791 394.581 202.578 390.224 205.505 391.797L205.449 391.807Z" fill="#2E2D2B"/>
<path d="M159.152 448.724C166.153 436.024 180.16 410.606 187.167 397.889L207.141 408.894C200.14 421.594 186.133 447.011 179.126 459.729C179.126 459.729 173.227 464.23 165.576 460.02C158.9 456.345 159.152 448.724 159.152 448.724Z" fill="#5B5B5B"/>
<path d="M156.982 447.334C166.324 430.387 175.654 413.446 184.996 396.499C185.696 395.225 187.408 395.067 188.569 395.713C195.226 399.382 201.884 403.05 208.542 406.719C209.817 407.418 209.974 409.131 209.328 410.291C200.698 425.958 192.062 441.612 183.426 457.267C182.093 459.696 181.246 461.741 178.69 462.952C174.994 464.693 170.671 464.843 166.839 463.422C160.693 461.157 156.45 455.231 156.575 448.626C156.649 445.296 161.807 445.504 161.747 448.828C161.618 454.895 167.223 459.818 173.228 459.21C174.505 459.084 175.726 458.669 176.874 458.091C177.173 457.957 177.547 457.788 177.783 457.547C176.726 458.593 177.873 456.682 177.899 456.64C179.562 453.613 181.231 450.599 182.894 447.572C190.257 434.214 197.607 420.862 204.976 407.517L205.761 411.089C199.103 407.42 192.445 403.752 185.787 400.084L189.36 399.298C180.017 416.245 170.688 433.186 161.345 450.133C159.736 453.046 155.391 450.254 156.988 447.346L156.982 447.334Z" fill="#2E2D2B"/>
<path d="M137.693 487.702C73.6417 485.198 -54.478 480.184 -118.529 477.681L-117.647 454.895C-53.5958 457.399 74.5059 462.406 138.562 464.922C138.562 464.922 171.925 466.898 171.498 477.955C171.032 489.958 137.668 487.713 137.668 487.713L137.693 487.702Z" fill="#5B5B5B"/>
<path d="M137.582 490.284C68.9277 487.607 0.280021 484.912 -68.3745 482.235C-85.1215 481.584 -101.874 480.921 -118.621 480.27C-120.013 480.208 -121.162 478.987 -121.106 477.583C-120.811 469.988 -120.517 462.393 -120.223 454.798C-120.161 453.406 -118.941 452.257 -117.537 452.313C-61.3374 454.519 -5.13156 456.706 51.0675 458.911C77.7906 459.952 104.519 461.006 131.242 462.047C138.471 462.326 145.515 462.794 152.64 464.139C159.212 465.388 169.988 467.321 173.257 474.21C181.13 490.818 145.792 490.811 137.582 490.284C134.264 490.071 134.454 484.905 137.785 485.113C143.756 485.495 149.899 485.394 155.816 484.556C162.821 483.542 175.503 478.263 163.579 472.652C149.56 466.051 131.498 467.236 116.442 466.648C64.4556 464.612 12.487 462.584 -39.4996 460.548C-65.5816 459.533 -91.6693 458.505 -117.751 457.49C-116.85 456.664 -115.966 455.832 -115.065 455.006C-115.359 462.601 -115.653 470.196 -115.947 477.791C-116.773 476.89 -117.605 476.006 -118.431 475.104C-49.7767 477.781 18.871 480.477 87.5255 483.154C104.273 483.804 121.025 484.468 137.772 485.119C141.099 485.253 140.891 490.412 137.57 490.29L137.582 490.284Z" fill="#2E2D2B"/>
<path d="M151.743 504.914C136.184 500.581 125.923 482.532 130.171 466.951C134.443 451.255 152.656 440.86 168.348 445.254C184.047 449.599 194.273 467.903 189.826 483.543C185.408 499.08 167.314 509.241 151.743 504.914Z" fill="#5B5B5B"/>
<path d="M150.959 507.365C137.706 503.461 128.09 490.966 126.8 477.326C125.463 463.318 134.009 450.491 146.658 444.807C159.443 439.061 174.111 441.548 183.784 451.875C193.228 461.96 196.43 477.346 190.079 489.858C183.019 503.754 165.965 511.303 150.977 507.372C147.764 506.527 149.326 501.612 152.546 502.439C163.897 505.416 176.619 500.359 183.409 490.885C190.394 481.145 189.441 468.222 182.656 458.617C175.876 449.024 164.357 444.744 153.031 447.944C141.929 451.074 132.533 460.852 131.849 472.669C131.093 485.791 139.898 498.713 152.533 502.445C155.718 503.393 154.162 508.32 150.965 507.377L150.959 507.365Z" fill="#2E2D2B"/>
<path d="M157.619 488.224C150.629 486.279 146.015 478.168 147.918 471.152C149.835 464.099 158.035 459.415 165.085 461.394C172.142 463.354 176.745 471.574 174.744 478.605C172.75 485.588 164.616 490.152 157.626 488.206L157.619 488.224Z" fill="#757575"/>
<path d="M156.842 490.688C150.255 488.741 145.583 482.53 144.981 475.773C144.379 469.016 148.547 462.702 154.663 459.946C160.991 457.095 168.269 458.281 173.07 463.416C177.783 468.455 179.202 476.028 176.048 482.229C172.574 489.054 164.151 492.61 156.829 490.694C153.616 489.849 155.178 484.934 158.398 485.761C162.864 486.926 167.979 484.876 170.649 481.156C173.493 477.192 173.086 471.965 170.258 468.084C167.506 464.304 163.008 462.735 158.511 463.997C154.015 465.259 150.361 469.123 150.094 473.784C149.795 479.073 153.316 484.26 158.411 485.756C161.595 486.704 160.039 491.631 156.842 490.688Z" fill="#2E2D2B"/>
</g>
<defs>
<clipPath id="clip0_442_3837">
<rect width="384.02" height="635.215" fill="white" transform="matrix(0.410808 0.911722 0.911722 -0.410808 -219 260.952)"/>
</clipPath>
</defs>
</svg>
