<svg width="24" height="25" viewBox="0 0 24 25" fill="none" xmlns="http://www.w3.org/2000/svg">
<path fill-rule="evenodd" clip-rule="evenodd" d="M5.1967 5.34887C6.60322 3.94234 8.51088 3.15217 10.5 3.15217C12.4891 3.15217 14.3968 3.94234 15.8033 5.34887C17.2098 6.75539 18 8.66304 18 10.6522C18 12.305 17.4545 13.9015 16.4631 15.201L20.7071 19.4451C21.0976 19.8356 21.0976 20.4688 20.7071 20.8593C20.3166 21.2498 19.6834 21.2498 19.2929 20.8593L15.0489 16.6152C13.7493 17.6066 12.1528 18.1522 10.5 18.1522C8.51088 18.1522 6.60322 17.362 5.1967 15.9555C3.79018 14.5489 3 12.6413 3 10.6522C3 8.66304 3.79018 6.75539 5.1967 5.34887ZM10.5 5.15217C9.04131 5.15217 7.64236 5.73163 6.61091 6.76308C5.57946 7.79453 5 9.19348 5 10.6522C5 12.1109 5.57946 13.5098 6.61091 14.5413C7.64236 15.5727 9.04131 16.1522 10.5 16.1522C11.9587 16.1522 13.3576 15.5727 14.3891 14.5413C15.4205 13.5098 16 12.1109 16 10.6522C16 9.19348 15.4205 7.79453 14.3891 6.76308C13.3576 5.73163 11.9587 5.15217 10.5 5.15217Z" fill="#717687"/>
</svg>
