<svg width="149" height="30" viewBox="0 0 149 30" fill="none" xmlns="http://www.w3.org/2000/svg">
<g clip-path="url(#clip0_464_2643)">
<path d="M138.752 6.73816C141.636 6.92264 144.366 8.60332 144.366 8.60332C139.281 3.28449 130.865 1.78311 126.977 7.98845C126.977 7.98845 123.897 8.66482 121.568 10.858C133.543 12.2313 126.129 21.1166 131.821 29.0487H133.754C132.998 27.7011 132.587 26.1382 132.648 24.4729C132.818 19.8867 136.628 16.1615 141.23 16.0795C144.557 16.018 147.467 17.8115 148.999 20.4863V17.5911C145.79 8.82882 138.752 6.73816 138.752 6.73816Z" fill="white"/>
<path d="M133.17 7.89591C133.231 8.05988 133.272 8.23411 133.272 8.41859C133.272 9.22308 132.619 9.87385 131.812 9.87385C131.004 9.87385 130.352 9.22308 130.352 8.41859C130.352 8.22898 130.393 8.04964 130.454 7.88054C130.064 7.96765 129.714 8.09575 129.436 8.26998C129.426 8.39295 129.426 8.52109 129.447 8.64916C129.632 9.89942 130.835 10.8423 132.136 10.7347C133.437 10.622 134.578 9.64835 134.686 8.57745C134.691 8.51595 134.691 8.45959 134.686 8.39809C134.275 8.18799 133.756 8.01377 133.17 7.89591Z" fill="#0069FF"/>
<path opacity="0.35" d="M121.568 10.8579C124.334 11.1756 126.063 11.8929 127.162 12.9076C127.841 12.5694 128.602 12.0467 128.967 11.5855C127.379 10.0022 126.977 7.98836 126.977 7.98836C126.972 7.98836 123.897 8.65963 121.568 10.8579Z" fill="#0069FF"/>
<path opacity="0.35" d="M133.748 29.0489C132.992 27.7013 132.581 26.1385 132.643 24.4731C132.73 22.0647 133.825 19.8921 135.512 18.3651C134.499 13.8404 128.854 9.78722 121.562 10.8582C133.537 12.2315 126.123 21.1168 131.815 29.0489H133.748Z" fill="#0069FF"/>
<path d="M148.999 26.7275C148.999 28.0034 147.949 29.0539 146.664 29.0539H133.748C132.993 27.7062 132.581 26.1434 132.643 24.4781C132.813 19.8919 136.623 16.1666 141.224 16.0847C144.551 16.0232 147.461 17.8166 148.993 20.4914V26.7275H148.999ZM121.568 10.8581C123.897 8.65975 126.977 7.98851 126.977 7.98851C130.864 1.78317 139.281 3.28455 144.366 8.60339C144.366 8.60339 141.635 6.92782 138.751 6.73823C138.751 6.73823 145.79 8.82889 148.999 17.5963V2.32632C148.999 1.05042 147.949 -3.8147e-05 146.664 -3.8147e-05H122.18C120.9 -3.8147e-05 119.846 1.04529 119.846 2.32632V26.7275C119.846 28.0034 120.895 29.0539 122.18 29.0539H131.821C126.129 21.1166 133.543 12.2313 121.568 10.8581Z" fill="#2A82FF"/>
<path d="M92.9603 15.5825C93.6445 15.3724 94.1939 15.0188 94.6109 14.5218C95.0271 14.0299 95.2377 13.3945 95.2377 12.6157C95.2377 11.6472 94.8831 10.9042 94.1739 10.3866C93.4639 9.86906 92.4874 9.60778 91.233 9.60778H86.6465V19.441H88.8931V15.7978H90.7702L93.5979 19.441H96.056L92.9603 15.5825ZM90.3432 15.1162H88.8931V10.2791H90.3332C92.0554 10.2791 92.9195 11.0938 92.9195 12.7181C92.9136 14.3117 92.0554 15.1162 90.3432 15.1162Z" fill="#25262C"/>
<path d="M3.3935 19.441L0 9.60784H2.32403L5.13138 18.1241L8.14952 9.60784H10.2267L13.3015 18.1088L16.0316 9.60784H17.096L13.7745 19.441H11.6407L8.566 11.0631L5.53242 19.441H3.3935Z" fill="#25262C"/>
<path d="M20.7305 19.441V9.60778H22.9774V14.0248H28.0624V9.60778H30.3093V19.441H28.0624V14.7217H22.9774V19.441H20.7305Z" fill="#25262C"/>
<path d="M35.4316 19.441V9.60778H37.6785V19.441H35.4316Z" fill="#25262C"/>
<path d="M44.6602 19.441V10.3354H41.1484V9.60778H50.4342V10.3354H46.9071V19.441H44.6602Z" fill="#25262C"/>
<path d="M53.8848 19.441V9.60778H61.3299V10.3354H56.1317V14.0248H60.8928V14.7217H56.1317V18.7133H61.7463V19.441H53.8848Z" fill="#25262C"/>
<path d="M65.8496 9.60778H70.5697C71.8088 9.60778 72.7651 9.8332 73.4439 10.2791C74.1225 10.73 74.4567 11.3193 74.4567 12.0571C74.4567 12.6002 74.2871 13.0563 73.9426 13.4201C73.6033 13.7839 73.1765 14.0709 72.6726 14.281C73.4078 14.4398 73.9838 14.7268 74.4104 15.1265C74.8321 15.5313 75.0481 16.0386 75.0481 16.6534C75.0481 17.5399 74.6778 18.2266 73.9375 18.7083C73.1971 19.1899 72.0813 19.4359 70.5902 19.4359H65.8496V9.60778ZM70.3332 14.0555C70.6005 14.0555 70.8782 13.9941 71.1764 13.8762C71.4746 13.7532 71.7317 13.5534 71.9425 13.2664C72.1533 12.9794 72.2664 12.6054 72.2664 12.1391C72.2664 11.5242 72.0299 11.063 71.562 10.7453C71.0941 10.4328 70.4719 10.2791 69.7007 10.2791H68.0863V14.0606H70.3332V14.0555ZM69.7264 18.7748C71.7882 18.7748 72.8217 18.0524 72.8217 16.6124C72.8217 15.9668 72.6006 15.4852 72.1585 15.1623C71.7162 14.8396 71.1353 14.6807 70.4103 14.6807H68.0965V18.78H69.7264V18.7748Z" fill="#25262C"/>
<path d="M79.2734 19.441V9.60778H81.5203V19.441H79.2734Z" fill="#25262C"/>
<path d="M109.127 10.8886C108.145 10.038 106.772 9.61266 104.998 9.61266H100.016V19.4459H104.998C106.792 19.4459 108.176 19.0257 109.142 18.1905C110.109 17.3552 110.592 16.146 110.592 14.5626C110.597 12.9639 110.104 11.7392 109.127 10.8886ZM104.212 18.7132H102.263V10.3352H104.191C106.885 10.3352 108.232 11.7443 108.232 14.5575C108.232 17.3297 106.895 18.7132 104.212 18.7132Z" fill="#25262C"/>
</g>
<defs>
<clipPath id="clip0_464_2643">
<rect width="149" height="29.1522" fill="white"/>
</clipPath>
</defs>
</svg>
