<svg width="20" height="21" viewBox="0 0 20 21" fill="none" xmlns="http://www.w3.org/2000/svg">
<path d="M18.6333 2.28934L0.520753 9.29832C0.509977 9.30247 0.49953 9.30744 0.489503 9.31316C0.342628 9.39637 -0.682372 10.0233 0.76294 10.5854L0.777784 10.5909L5.09067 11.9843C5.12358 11.9949 5.15842 11.9983 5.19277 11.9941C5.22711 11.99 5.26013 11.9783 5.2895 11.96L15.9868 5.28582C16.013 5.26945 16.0422 5.25843 16.0727 5.2534C16.2215 5.22879 16.65 5.1827 16.379 5.52684C16.0723 5.91746 8.76567 12.4651 7.95474 13.1913C7.90798 13.2333 7.87904 13.2915 7.87388 13.3542L7.51997 17.5729C7.51993 17.6159 7.52989 17.6583 7.54908 17.6967C7.56827 17.7352 7.59615 17.7686 7.63052 17.7944C7.67928 17.8251 7.73662 17.8394 7.79409 17.835C7.85155 17.8306 7.90609 17.8079 7.94966 17.7702L10.5122 15.48C10.5526 15.4438 10.6043 15.4226 10.6585 15.4198C10.7127 15.417 10.7662 15.4329 10.8102 15.4647L15.2809 18.7108L15.2954 18.7206C15.4036 18.7874 16.5723 19.4675 16.9098 17.9487L19.9958 3.27488C20 3.2284 20.0418 2.71746 19.6766 2.41551C19.293 2.09988 18.75 2.25926 18.6684 2.27645C18.6564 2.2798 18.6446 2.28411 18.6333 2.28934Z" fill="#009EEB"/>
</svg>
