<svg width="342" height="122" viewBox="0 0 342 122" fill="none" xmlns="http://www.w3.org/2000/svg">
<rect x="0.191406" y="88.8405" width="70.0122" height="4.37196" fill="white"/>
<path d="M96.8852 71.7167V110.526H88.6798V71.7167H96.8852ZM149.439 71.7167V110.526H142.351L125.467 86.0998H125.182V110.526H116.977V71.7167H124.178L140.93 96.1244H141.271V71.7167H149.439ZM169.559 110.526V71.7167H195.255V78.4819H177.764V87.7295H193.55V94.4947H177.764V110.526H169.559ZM249.779 91.1216C249.779 95.3538 248.977 98.9543 247.373 101.923C245.781 104.892 243.608 107.16 240.854 108.726C238.112 110.28 235.03 111.057 231.606 111.057C228.157 111.057 225.062 110.274 222.321 108.707C219.579 107.141 217.413 104.873 215.821 101.904C214.229 98.9353 213.433 95.3411 213.433 91.1216C213.433 86.8894 214.229 83.2889 215.821 80.32C217.413 77.3512 219.579 75.0898 222.321 73.5359C225.062 71.9694 228.157 71.1861 231.606 71.1861C235.03 71.1861 238.112 71.9694 240.854 73.5359C243.608 75.0898 245.781 77.3512 247.373 80.32C248.977 83.2889 249.779 86.8894 249.779 91.1216ZM241.46 91.1216C241.46 88.3801 241.05 86.0682 240.228 84.1858C239.42 82.3035 238.277 80.8759 236.798 79.9031C235.32 78.9304 233.59 78.444 231.606 78.444C229.623 78.444 227.892 78.9304 226.414 79.9031C224.936 80.8759 223.786 82.3035 222.965 84.1858C222.156 86.0682 221.752 88.3801 221.752 91.1216C221.752 93.863 222.156 96.1749 222.965 98.0573C223.786 99.9397 224.936 101.367 226.414 102.34C227.892 103.313 229.623 103.799 231.606 103.799C233.59 103.799 235.32 103.313 236.798 102.34C238.277 101.367 239.42 99.9397 240.228 98.0573C241.05 96.1749 241.46 93.863 241.46 91.1216Z" fill="white"/>
<rect x="268.41" y="88.8405" width="70.0122" height="4.37196" fill="white"/>
<path d="M52.8786 26.1583H38.3406C38.2375 24.9554 37.9626 23.8642 37.5158 22.8847C37.0862 21.9051 36.4847 21.0631 35.7114 20.3586C34.9553 19.6368 34.036 19.0869 32.9533 18.7089C31.8707 18.3136 30.642 18.116 29.2673 18.116C26.8615 18.116 24.8252 18.7003 23.1583 19.8688C21.5086 21.0373 20.2541 22.7128 19.3949 24.8952C18.5529 27.0776 18.1319 29.6982 18.1319 32.7571C18.1319 35.9877 18.5615 38.6942 19.4207 40.8767C20.2971 43.0419 21.5601 44.6744 23.2098 45.7742C24.8595 46.8568 26.8443 47.3981 29.1642 47.3981C30.4874 47.3981 31.6731 47.2349 32.7214 46.9084C33.7696 46.5647 34.6804 46.0749 35.4537 45.4391C36.227 44.8033 36.8542 44.0386 37.3353 43.145C37.8337 42.2342 38.1688 41.2117 38.3406 40.0776L52.8786 40.1807C52.7067 42.4146 52.0795 44.6916 50.9969 47.0115C49.9143 49.3142 48.3763 51.445 46.3829 53.404C44.4067 55.3459 41.9579 56.9096 39.0366 58.0954C36.1153 59.2811 32.7214 59.8739 28.8549 59.8739C24.0089 59.8739 19.6613 58.8343 15.812 56.755C11.9799 54.6757 8.94683 51.6169 6.71286 47.5785C4.49608 43.5402 3.38769 38.5997 3.38769 32.7571C3.38769 26.88 4.52186 21.9309 6.79019 17.9098C9.05852 13.8715 12.1173 10.8212 15.9666 8.75913C19.8159 6.67982 24.112 5.64017 28.8549 5.64017C32.1886 5.64017 35.256 6.09555 38.0571 7.00632C40.8581 7.91709 43.3155 9.24888 45.4292 11.0017C47.5428 12.7373 49.2441 14.8768 50.5329 17.42C51.8217 19.9633 52.6036 22.8761 52.8786 26.1583ZM64.4618 59.1522V6.36191H87.2482C91.1662 6.36191 94.5945 7.07506 97.533 8.50136C100.472 9.92766 102.757 11.9812 104.39 14.6619C106.022 17.3427 106.838 20.5562 106.838 24.3024C106.838 28.0829 105.996 31.2706 104.312 33.8654C102.645 36.4603 100.3 38.4193 97.2753 39.7425C94.268 41.0657 90.7538 41.7273 86.7327 41.7273H73.1227V30.5918H83.8457C85.5298 30.5918 86.9647 30.3856 88.1504 29.9732C89.3533 29.5436 90.2726 28.8648 90.9085 27.9368C91.5615 27.0089 91.888 25.7974 91.888 24.3024C91.888 22.7901 91.5615 21.5615 90.9085 20.6163C90.2726 19.654 89.3533 18.9494 88.1504 18.5026C86.9647 18.0387 85.5298 17.8067 83.8457 17.8067H78.7935V59.1522H64.4618ZM95.3936 34.9223L108.591 59.1522H93.0221L80.1339 34.9223H95.3936ZM113.382 6.36191H129.364L139.674 27.808H140.087L150.397 6.36191H166.379L146.995 42.5521V59.1522H132.766V42.5521L113.382 6.36191ZM176.132 59.1522V6.36191H198.918C202.836 6.36191 206.264 7.13521 209.203 8.6818C212.142 10.2284 214.427 12.4022 216.06 15.2033C217.692 18.0043 218.508 21.2779 218.508 25.0241C218.508 28.8047 217.666 32.0783 215.982 34.8449C214.315 37.6116 211.97 39.7425 208.945 41.2375C205.938 42.7326 202.424 43.4801 198.403 43.4801H184.793V32.3446H195.516C197.2 32.3446 198.635 32.0525 199.82 31.4682C201.023 30.8668 201.943 30.0162 202.578 28.9164C203.231 27.8166 203.558 26.5191 203.558 25.0241C203.558 23.5119 203.231 22.2231 202.578 21.1576C201.943 20.075 201.023 19.2502 199.82 18.6831C198.635 18.0988 197.2 17.8067 195.516 17.8067H190.463V59.1522H176.132ZM227.404 17.9098V6.36191H273.286V17.9098H257.408V59.1522H243.283V17.9098H227.404Z" fill="white"/>
<g clip-path="url(#clip0_479_5192)">
<g filter="url(#filter0_i_479_5192)">
<circle cx="311.196" cy="33.3393" r="29.6101" fill="#0169FF"/>
</g>
<path d="M322.285 33.4061L305.656 43.0068L305.656 23.8054L322.285 33.4061Z" fill="white"/>
</g>
<defs>
<filter id="filter0_i_479_5192" x="281.586" y="3.72922" width="59.2207" height="60.81" filterUnits="userSpaceOnUse" color-interpolation-filters="sRGB">
<feFlood flood-opacity="0" result="BackgroundImageFix"/>
<feBlend mode="normal" in="SourceGraphic" in2="BackgroundImageFix" result="shape"/>
<feColorMatrix in="SourceAlpha" type="matrix" values="0 0 0 0 0 0 0 0 0 0 0 0 0 0 0 0 0 0 127 0" result="hardAlpha"/>
<feOffset dy="1.5898"/>
<feGaussianBlur stdDeviation="0.794901"/>
<feComposite in2="hardAlpha" operator="arithmetic" k2="-1" k3="1"/>
<feColorMatrix type="matrix" values="0 0 0 0 0 0 0 0 0 0 0 0 0 0 0 0 0 0 0.25 0"/>
<feBlend mode="normal" in2="shape" result="effect1_innerShadow_479_5192"/>
</filter>
<clipPath id="clip0_479_5192">
<rect width="59.2202" height="59.2202" fill="white" transform="translate(281.586 3.72922)"/>
</clipPath>
</defs>
</svg>
