<svg width="1920" height="709" viewBox="0 0 1920 709" fill="none" xmlns="http://www.w3.org/2000/svg">
<g clip-path="url(#clip0_176_150)">
<path d="M-83.5264 496.358C-92.001 448.474 -86.4564 401.103 -59.4875 356.182C-48.2664 326.335 -11.7562 298.594 14.6335 283.191C49.0648 263.099 81.0833 258.302 120.115 254.731C130.437 253.789 141.151 252.88 150.891 256.41C160.143 259.754 167.931 266.909 177.616 268.632C182.38 269.486 187.267 268.948 192.115 268.943C221.679 268.864 244.176 290.703 262.936 311.19C273.576 322.803 280.042 336.973 289.904 348.06C291.764 350.144 294.177 351.625 296.299 353.445C308.947 364.277 308.32 383.524 312.511 399.653C315.359 410.623 320.81 420.731 324.766 431.357C335.29 459.71 327.106 503.253 317.536 531.227C309.631 554.306 296.091 573.027 284.525 594.105C272.958 615.183 257.76 623.865 237.987 635.625C207.646 653.673 176.045 672.159 140.927 675.599C107.594 678.862 74.6393 668.211 42.8437 657.705C-7.17055 641.171 -51.1393 597.577 -69.281 548.161C-75.6222 530.896 -80.4859 513.601 -83.5399 496.36L-83.5264 496.358Z" stroke="white" stroke-width="4.22624" stroke-linecap="round" stroke-linejoin="round"/>
<path d="M-17.9213 485.833C-30.1662 409.81 21.5358 338.256 97.5584 326.011C122.148 322.05 147.602 324.752 170.769 333.891C179.748 337.432 190.95 341.099 198.356 347.166C206.75 354.043 210.146 365.41 219.055 371.954C224.258 375.785 230.778 377.644 235.634 381.905C240.409 386.095 243.07 392.122 245.525 397.988C254.748 419.985 253.956 441.045 258.466 463.453C259.521 468.714 260.573 474.211 259.105 479.379C257.746 484.183 254.361 488.109 251.566 492.258C240.913 508.09 238.502 528.04 229.914 545.077C213.834 577.009 175.832 595.834 141.885 601.301C65.8625 613.546 -5.69211 561.844 -17.937 485.822L-17.9213 485.833Z" stroke="white" stroke-width="4.22624" stroke-linecap="round" stroke-linejoin="round"/>
<path d="M55.3584 474.03C51.8829 452.452 61.9266 428.627 77.0476 413.446C85.1915 405.263 94.8214 399.598 106.16 397.231C119.939 394.361 128.802 402.339 142.024 402.288C155.95 402.22 167.36 412.767 177.202 422.611C179.449 424.867 181.746 427.171 183.149 430.034C191.377 446.802 189.073 466.983 184.066 484.234C181.499 493.07 178.45 502.607 170.889 507.871C159.815 515.583 143.356 525.895 130.096 528.031C94.5555 533.756 61.0985 509.581 55.3584 474.03Z" stroke="white" stroke-width="4.23" stroke-miterlimit="10"/>
</g>
<path d="M1879.81 114.096L1880.96 117.72L1883.43 114.829L1955.11 30.8762L1931.44 138.695L1930.62 142.407L1934.2 141.137L2038.26 104.279L1963.83 185.821L1961.26 188.628L1965 189.321L2073.54 209.427L1968.33 242.808L1964.71 243.958L1967.6 246.427L2051.55 318.116L1943.73 294.438L1940.02 293.623L1941.29 297.206L1978.15 401.264L1896.6 326.828L1893.8 324.264L1893.1 328.003L1873.02 436.545L1839.62 331.33L1838.47 327.708L1836 330.598L1764.31 414.55L1787.99 306.732L1788.8 303.02L1785.22 304.29L1681.18 341.145L1755.6 259.605L1758.16 256.798L1754.42 256.106L1645.88 236.016L1751.1 202.618L1754.72 201.468L1751.83 199L1667.88 127.311L1775.69 150.989L1779.41 151.804L1778.14 148.221L1741.28 44.1796L1822.82 118.599L1825.63 121.162L1826.32 117.424L1846.43 8.87937L1879.81 114.096Z" stroke="white" stroke-width="4.223"/>
<defs>
<clipPath id="clip0_176_150">
<rect width="419" height="424.744" fill="white" transform="translate(362.211 642.34) rotate(170.85)"/>
</clipPath>
</defs>
</svg>
